<svg xmlns="http://www.w3.org/2000/svg" xmlns:xlink="http://www.w3.org/1999/xlink" id="Layer_1" x="0" y="0" enable-background="new 0 0 18 18" version="1.1" viewBox="0 0 18 18" xml:space="preserve"><path d="M18,9c0-5-4-9-9-9S0,4,0,9c0,3.3,1.8,6.2,4.4,7.7l0,0l0.3,0.2c0,0,0,0,0.1,0c0.3,0.2,0.6,0.3,0.9,0.4c0.1,0,0.2,0.1,0.3,0.1	c0.2,0.1,0.5,0.2,0.7,0.2c0.1,0,0.2,0.1,0.3,0.1c0.2,0.1,0.5,0.1,0.8,0.1c0.1,0,0.2,0,0.3,0C8.3,18,8.6,18,9,18s0.7,0,1-0.1	c0.1,0,0.2,0,0.3,0c0.3,0,0.5-0.1,0.8-0.1c0.1,0,0.2-0.1,0.3-0.1c0.2-0.1,0.5-0.1,0.7-0.2c0.1,0,0.2-0.1,0.3-0.1	c0.3-0.1,0.6-0.2,0.8-0.4c0,0,0.1,0,0.1,0l0.3-0.2l0,0C16.2,15.2,18,12.3,18,9z M5.7,15.8v-3c0-1,0.8-1.8,1.8-1.8h3	c1,0,1.8,0.8,1.8,1.8v3c0,0,0,0,0,0c-0.1,0-0.1,0.1-0.2,0.1c-0.2,0.1-0.3,0.1-0.5,0.2c-0.1,0-0.2,0.1-0.2,0.1	c-1.6,0.5-3.3,0.5-4.9,0c-0.1,0-0.2-0.1-0.2-0.1C6.2,16.1,6,16,5.8,15.9C5.8,15.9,5.7,15.9,5.7,15.8C5.7,15.8,5.7,15.8,5.7,15.8z M9,9.6C8.1,9.6,7.4,8.9,7.4,8c0-0.9,0.7-1.6,1.6-1.6c0.9,0,1.6,0.7,1.6,1.6C10.6,8.9,9.9,9.6,9,9.6z M13.7,15v-2.2	c0-1.5-1-2.7-2.3-3.1C11.7,9.2,12,8.6,12,8c0-1.6-1.3-3-3-3C7.4,5,6,6.4,6,8c0,0.6,0.2,1.2,0.6,1.7c-1.3,0.4-2.3,1.6-2.3,3.1V15	c-1.8-1.4-2.9-3.5-2.9-6c0-4.2,3.4-7.6,7.6-7.6s7.6,3.4,7.6,7.6C16.6,11.4,15.5,13.6,13.7,15z"/></svg>