<?xml version="1.0" encoding="utf-8"?>
<!-- Generator: Adobe Illustrator 21.1.0, SVG Export Plug-In . SVG Version: 6.00 Build 0)  -->
<svg version="1.1" id="Layer_1" xmlns="http://www.w3.org/2000/svg" xmlns:xlink="http://www.w3.org/1999/xlink" x="0px" y="0px"
	 viewBox="0 0 36 36" style="enable-background:new 0 0 36 36;" xml:space="preserve">
<style type="text/css">
	.st0{fill:#2B2D4B;}
</style>
<g>
	<path class="st0" d="M18,36C8.1,36,0,27.9,0,18C0,8.1,8.1,0,18,0c9.9,0,18,8.1,18,18C36,27.9,27.9,36,18,36z M18,1.5
		C8.9,1.5,1.5,8.9,1.5,18c0,9.1,7.4,16.5,16.5,16.5c9.1,0,16.5-7.4,16.5-16.5C34.5,8.9,27.1,1.5,18,1.5z"/>
</g>
<g>
	<path class="st0" d="M22.6,26.3c-2-0.1-3.8-0.8-5.8-2.1c-2.4-1.5-4.2-3.5-5.5-5.9c-0.7-1.2-1.1-2.3-1.4-3.6
		c-0.1-0.6-0.2-1.1-0.2-1.5c0-0.8,0.3-1.4,0.9-1.9l2-1.3C13,9.8,13.5,9.7,14,9.7c0.5,0.1,1,0.4,1.2,0.9c0.3,0.5,0.6,1,0.8,1.5
		c0.3,0.5,0.5,1,0.8,1.5c0.4,0.9,0.2,1.7-0.5,2.2c-0.3,0.3-0.6,0.5-0.9,0.8c1,1.7,2.2,2.9,3.9,3.9c0.2-0.3,0.4-0.5,0.6-0.8
		c0,0,0-0.1,0.1-0.1c0.9-1.1,1.9-0.8,2.4-0.5c0.5,0.3,0.9,0.5,1.4,0.7c0.5,0.2,1,0.5,1.5,0.8c0.4,0.2,0.8,0.6,0.9,1.1
		c0.1,0.5,0.1,1-0.2,1.5l-1.3,2C24.3,25.9,23.5,26.3,22.6,26.3z M13.7,11.2c0,0-0.1,0-0.1,0.1l-2,1.3c-0.2,0.2-0.3,0.4-0.3,0.7
		c0,0.3,0.1,0.7,0.2,1.2c0.2,1.1,0.6,2.1,1.2,3.1c1.2,2.1,2.9,3.9,5,5.3c1.7,1.1,3.3,1.7,5,1.8c0.3,0,0.6-0.1,0.7-0.4l1.3-2
		c0-0.1,0.1-0.2,0-0.2c0-0.1-0.1-0.1-0.2-0.2c-0.5-0.3-1-0.5-1.5-0.8c-0.5-0.2-1-0.5-1.5-0.8c-0.2-0.1-0.2-0.1-0.4,0.1
		c-0.2,0.4-0.5,0.7-0.7,1c-0.1,0.1-0.2,0.3-0.3,0.4c-0.2,0.3-0.6,0.4-0.9,0.2c-2.4-1.3-4.1-3-5.4-5.4c0-0.1-0.1-0.2-0.1-0.3
		c0,0,0,0,0,0c0,0,0,0,0,0c0-0.1,0-0.1,0-0.2c0,0,0,0,0,0c0,0,0,0,0,0c0-0.2,0.1-0.3,0.2-0.5l0,0c0,0,0,0,0,0c0,0,0,0,0,0
		c0,0,0,0,0,0c0,0,0,0,0,0l0,0c0,0,0.1-0.1,0.2-0.1l0.1-0.1c0.4-0.3,0.7-0.6,1.1-0.9c0,0,0.1,0,0.1-0.1c0.1-0.1,0.2-0.1,0.1-0.4
		c-0.2-0.4-0.5-0.9-0.8-1.4c-0.3-0.5-0.5-1-0.8-1.5C13.9,11.3,13.8,11.2,13.7,11.2C13.7,11.2,13.7,11.2,13.7,11.2z"/>
</g>
</svg>
