<svg xmlns="http://www.w3.org/2000/svg" xmlns:xlink="http://www.w3.org/1999/xlink" id="Layer_1" x="0" y="0" enable-background="new 0 0 36 36" version="1.1" viewBox="0 0 36 36" xml:space="preserve"><style type="text/css">.st0{fill:#2b2d4b}</style><g><g><path d="M23.8,27H12.2C10.5,27,9,25.5,9,23.8V12.2C9,10.5,10.5,9,12.2,9h11.5c1.8,0,3.2,1.5,3.2,3.2v11.5 C27,25.5,25.5,27,23.8,27z M12.2,10.5c-1,0-1.8,0.8-1.8,1.8v11.5c0,1,0.8,1.8,1.8,1.8h11.5c1,0,1.8-0.8,1.8-1.8V12.2 c0-1-0.8-1.8-1.8-1.8H12.2z" class="st0"/></g><g><path d="M17.9,21.8l-4.1-3.5c-0.3-0.3-0.4-0.7-0.1-1.1c0.3-0.3,0.7-0.4,1.1-0.1l2.9,2.5l3.5-4.8 c0.2-0.3,0.7-0.4,1-0.2c0.3,0.2,0.4,0.7,0.2,1L17.9,21.8z" class="st0"/></g></g><g><path d="M18,36C8.1,36,0,27.9,0,18C0,8.1,8.1,0,18,0c9.9,0,18,8.1,18,18C36,27.9,27.9,36,18,36z M18,1.5 C8.9,1.5,1.5,8.9,1.5,18c0,9.1,7.4,16.5,16.5,16.5c9.1,0,16.5-7.4,16.5-16.5C34.5,8.9,27.1,1.5,18,1.5z" class="st0"/></g></svg>