<svg xmlns="http://www.w3.org/2000/svg" xmlns:xlink="http://www.w3.org/1999/xlink" id="Layer_1" x="0" y="0" enable-background="new 0 0 36 36" version="1.1" viewBox="0 0 36 36" xml:space="preserve"><style type="text/css">.st0{fill:#2b2d4b}</style><g><path d="M27.9,26.8L22.1,21c2.6-3.1,2.4-7.8-0.5-10.8c-3.1-3.1-8.2-3.1-11.3,0c-3.1,3.1-3.1,8.2,0,11.3 c1.6,1.6,3.6,2.3,5.7,2.3c1.8,0,3.6-0.6,5.1-1.8l5.8,5.8c0.1,0.1,0.3,0.2,0.5,0.2s0.4-0.1,0.5-0.2C28.2,27.6,28.2,27.1,27.9,26.8z M11.3,20.5c-2.5-2.5-2.5-6.7,0-9.2c1.3-1.3,2.9-1.9,4.6-1.9c1.7,0,3.3,0.6,4.6,1.9c2.5,2.5,2.5,6.7,0,9.2S13.8,23,11.3,20.5z" class="st0"/><path d="M18.8,15.1h-2.2V13c0-0.4-0.3-0.8-0.8-0.8s-0.8,0.3-0.8,0.8v2.2H13c-0.4,0-0.8,0.3-0.8,0.8s0.3,0.8,0.8,0.8 h2.2v2.2c0,0.4,0.3,0.8,0.8,0.8s0.8-0.3,0.8-0.8v-2.2h2.2c0.4,0,0.8-0.3,0.8-0.8S19.2,15.1,18.8,15.1z" class="st0"/></g><g><path d="M18,36C8.1,36,0,27.9,0,18C0,8.1,8.1,0,18,0c9.9,0,18,8.1,18,18C36,27.9,27.9,36,18,36z M18,1.5 C8.9,1.5,1.5,8.9,1.5,18c0,9.1,7.4,16.5,16.5,16.5c9.1,0,16.5-7.4,16.5-16.5C34.5,8.9,27.1,1.5,18,1.5z" class="st0"/></g></svg>