<svg xmlns="http://www.w3.org/2000/svg" xmlns:xlink="http://www.w3.org/1999/xlink" id="Layer_1" x="0" y="0" enable-background="new 0 0 36 36" version="1.1" viewBox="0 0 36 36" xml:space="preserve"><style type="text/css">.st0{fill:#2b2d4b}</style><path d="M23.8,9H12.2C10.5,9,9,10.5,9,12.2v11.5c0,1.8,1.5,3.2,3.2,3.2h11.5c1.8,0,3.2-1.5,3.2-3.2V12.2	C27,10.5,25.5,9,23.8,9z M23.8,10.5c0.4,0,0.8,0.1,1.1,0.4l-6,6c-0.4,0.4-1.2,0.4-1.6,0l-6-6c0.3-0.2,0.7-0.4,1.1-0.4H23.8z M23.8,25.5H12.2c-1,0-1.8-0.8-1.8-1.8V12.3l5.6,5.6c0.5,0.5,1.2,0.8,1.9,0.8s1.4-0.3,1.9-0.8l5.6-5.6v11.4	C25.5,24.7,24.7,25.5,23.8,25.5z" class="st0"/><g><path d="M18,36C8.1,36,0,27.9,0,18C0,8.1,8.1,0,18,0c9.9,0,18,8.1,18,18C36,27.9,27.9,36,18,36z M18,1.5 C8.9,1.5,1.5,8.9,1.5,18c0,9.1,7.4,16.5,16.5,16.5c9.1,0,16.5-7.4,16.5-16.5C34.5,8.9,27.1,1.5,18,1.5z" class="st0"/></g></svg>