<?xml version="1.0" encoding="utf-8"?>
<!-- Generator: Adobe Illustrator 21.1.0, SVG Export Plug-In . SVG Version: 6.00 Build 0)  -->
<svg version="1.1" id="Layer_1" xmlns="http://www.w3.org/2000/svg" xmlns:xlink="http://www.w3.org/1999/xlink" x="0px" y="0px"
	 viewBox="0 0 36 36" style="enable-background:new 0 0 36 36;" xml:space="preserve">
<style type="text/css">
	.st0{fill:#2B2D4B;}
</style>
<g>
	<path class="st0" d="M18,0C8.1,0,0,8.1,0,18c0,9.9,8.1,18,18,18c9.9,0,18-8.1,18-18C36,8.1,27.9,0,18,0z M18,1.5
		c9.1,0,16.5,7.4,16.5,16.5c0,1.3-0.2,2.6-0.5,3.8c0,0,0,0-0.1,0h-9.7v11.5c-0.7,0.3-1.5,0.5-2.3,0.7V23.2c0.3-0.1,0.6-0.4,0.6-0.7
		c0-0.4-0.3-0.8-0.8-0.8h-7.8c-0.4,0-0.8,0.3-0.8,0.8c0,0.4,0.3,0.7,0.6,0.7V34c-0.8-0.2-1.6-0.4-2.3-0.7V21.8H2c0,0,0,0-0.1,0
		c-0.3-1.2-0.5-2.5-0.5-3.8C1.5,8.9,8.9,1.5,18,1.5z M2.4,23.3h7.8v9.3C6.5,30.6,3.7,27.3,2.4,23.3z M15.4,34.3v-11h5.1v11
		c-0.8,0.1-1.7,0.2-2.6,0.2C17.1,34.5,16.3,34.4,15.4,34.3z M25.8,32.5v-9.3h7.8C32.3,27.3,29.5,30.6,25.8,32.5z"/>
	<path class="st0" d="M10.7,18c0-1.1-0.9-2-2-2H7.5l-0.9,1l-0.9-1H4.4c-1.1,0-2,0.9-2,2v3.4h8.2V18z M9.2,19.9H4V18
		c0-0.2,0.2-0.5,0.5-0.5h0.6l1.6,1.9l1.6-1.9h0.6c0.2,0,0.5,0.2,0.5,0.5V19.9z"/>
	<path class="st0" d="M6.6,15.8c1.5,0,2.7-1.2,2.7-2.7s-1.2-2.7-2.7-2.7s-2.7,1.2-2.7,2.7S5.1,15.8,6.6,15.8z M6.6,11.9
		c0.7,0,1.2,0.5,1.2,1.2s-0.5,1.2-1.2,1.2s-1.2-0.5-1.2-1.2S5.9,11.9,6.6,11.9z"/>
	<path class="st0" d="M33.5,18c0-1.1-0.9-2-2-2h-1.3l-0.9,1l-0.9-1h-1.3c-1.1,0-2,0.9-2,2v3.4h8.2V18z M32,19.9h-5.2V18
		c0-0.2,0.2-0.5,0.5-0.5h0.6l1.6,1.9l1.6-1.9h0.6c0.2,0,0.5,0.2,0.5,0.5V19.9z"/>
	<path class="st0" d="M29.4,15.8c1.5,0,2.7-1.2,2.7-2.7s-1.2-2.7-2.7-2.7s-2.7,1.2-2.7,2.7S27.9,15.8,29.4,15.8z M29.4,11.9
		c0.7,0,1.2,0.5,1.2,1.2s-0.5,1.2-1.2,1.2c-0.7,0-1.2-0.5-1.2-1.2S28.7,11.9,29.4,11.9z"/>
</g>
</svg>
