<?xml version="1.0" encoding="utf-8"?>
<!-- Generator: Adobe Illustrator 21.1.0, SVG Export Plug-In . SVG Version: 6.00 Build 0)  -->
<svg version="1.1" id="Layer_1" xmlns="http://www.w3.org/2000/svg" xmlns:xlink="http://www.w3.org/1999/xlink" x="0px" y="0px"
	 viewBox="0 0 36 36" style="enable-background:new 0 0 36 36;" xml:space="preserve">
<style type="text/css">
	.st0{fill:#2B2D4B;}
</style>
<g>
	<g>
		<path class="st0" d="M18,36C8.1,36,0,27.9,0,18S8.1,0,18,0s18,8.1,18,18S27.9,36,18,36z M18,1.5C8.9,1.5,1.5,8.9,1.5,18
			S8.9,34.5,18,34.5S34.5,27.1,34.5,18S27.1,1.5,18,1.5z"/>
	</g>
</g>
<path class="st0" d="M27.9,17.3l-10.8-5.6c-0.2-0.1-0.5-0.1-0.7,0c-0.2,0.1-0.4,0.4-0.4,0.6v2.1l-5.3-2.8c-0.2-0.1-0.5-0.1-0.7,0
	c-0.2,0.1-0.4,0.4-0.4,0.6v11.2c0,0.3,0.1,0.5,0.4,0.6c0.1,0.1,0.3,0.1,0.4,0.1c0.1,0,0.2,0,0.3-0.1l5.3-2.8v2.1
	c0,0.3,0.1,0.5,0.4,0.6c0.1,0.1,0.3,0.1,0.4,0.1c0.1,0,0.2,0,0.3-0.1l10.8-5.6c0.2-0.1,0.4-0.4,0.4-0.7S28.2,17.5,27.9,17.3z
	 M11.1,13.6l8.4,4.4l-8.4,4.4V13.6z M17.5,22.4v-1.6l4-2.1c0.2-0.1,0.4-0.4,0.4-0.7s-0.2-0.5-0.4-0.7l-4-2.1v-1.6L26,18L17.5,22.4z"
	/>
</svg>
