<svg xmlns="http://www.w3.org/2000/svg" xmlns:xlink="http://www.w3.org/1999/xlink" id="Layer_1" x="0" y="0" enable-background="new 0 0 38.1 36" version="1.1" viewBox="0 0 38.1 36" xml:space="preserve"><style type="text/css">.st0{fill:#2b2d4b}</style><path d="M35.2,23.3c0.5-1.7,0.8-3.5,0.8-5.3c0-9.9-8.1-18-18-18C8.1,0,0,8.1,0,18c0,9.9,8.1,18,18,18c3,0,5.7-0.7,8.2-2	c1.3,1.2,3,2,4.9,2c3.9,0,7-3.1,7-7C38.1,26.7,36.9,24.6,35.2,23.3z M25.2,32.8c-2.2,1.1-4.6,1.7-7.2,1.7c-4.8,0-9.1-2.1-12.1-5.4	c1.3-2.2,3.5-3.8,6-4.4c0.1,0,0.2,0,0.3,0c0.6,1.8,3,3,5.9,3c2.9,0,5.3-1.3,5.9-3.1c0.5,0.1,0.9,0.3,1.3,0.5	c-0.7,1.1-1.2,2.4-1.2,3.9C24.1,30.4,24.5,31.7,25.2,32.8z M21.9,7.7c1.3,0.7,2,2.2,2.1,4.3c-0.8-0.4-1.7-0.1-2.6,0.2	c-0.7,0.2-1.4,0.5-2.1,0.3c-1.1-0.2-1.5-0.5-2-1c-0.6-0.6-1.3-1.2-3.2-1.4c-1-0.1-1.8,0.2-2.5,0.8c-0.1,0.1-0.1,0.2-0.2,0.2	c0.1-0.6,0.2-1.1,0.5-1.5c0.3-0.5,0.7-0.8,1.4-0.9c0.2,0,0.4-0.2,0.5-0.3c1-1.5,1.8-2.4,4.5-1.9c1.4,0.2,2.5,0.2,3.3,0.2	c-0.1,0.1-0.1,0.3-0.1,0.4C21.5,7.3,21.7,7.6,21.9,7.7z M11.5,15.1C11.6,15.1,11.6,15.1,11.5,15.1C11.6,15,11.6,15,11.5,15.1	c0.1-0.1,0.1-0.2,0.2-0.3c0,0,0-0.1,0-0.1c0,0,0-0.1,0-0.1c0,0,0.1-1.8,1-2.5c0.3-0.3,0.8-0.4,1.3-0.4c1.3,0.1,1.8,0.5,2.3,1	c0.6,0.5,1.2,1.1,2.7,1.3c1.1,0.2,2.1-0.1,2.9-0.4c0.6-0.2,1.2-0.4,1.4-0.2c0.1,0.1,0.4,0.3,0.5,1.1c0,0.2,0.1,0.4,0.3,0.5	c0,0,0,0,0,0c0,0,0,0,0.1,0c0.2,0.1,0.5,1.2-1.3,4c-2.7,3.8-3.8,4.1-5.1,4.1c-1,0-3.1-1.4-5.1-4.2c0,0-0.1-0.1-0.1-0.1	c-1.4-1.1-2-3-1.9-3.6c0,0,0,0,0,0c0,0,0,0,0,0c0,0,0,0,0.1,0c0,0,0,0,0,0c0.1,0,0.1,0,0.2,0c0,0,0.1,0,0.1,0	C11.4,15.2,11.5,15.2,11.5,15.1z M14.4,22.9c1.2,1.1,2.5,1.8,3.6,1.8c1.2,0,2.3-0.3,3.5-1.4c0.2,0.4,0.5,0.7,1,1	c-0.4,1.1-2.3,2-4.4,2c-2.3,0-4.2-1-4.5-2.2C13.9,23.7,14.2,23.3,14.4,22.9z M33.6,29.8h-1.8v1.8c0,0.4-0.3,0.8-0.8,0.8	s-0.8-0.3-0.8-0.8v-1.8h-1.8c-0.4,0-0.8-0.3-0.8-0.8s0.3-0.8,0.8-0.8h1.8v-1.8c0-0.4,0.3-0.8,0.8-0.8s0.8,0.3,0.8,0.8v1.8h1.8	c0.4,0,0.8,0.3,0.8,0.8S34,29.8,33.6,29.8z M33.8,22.6C33,22.2,32.1,22,31.1,22c-1.8,0-3.5,0.7-4.8,1.9c-0.9-0.4-1.8-0.7-2.8-0.9	c-0.3-0.1-0.7-0.2-0.8-1c0.5-0.6,1-1.3,1.6-2.1c1.4-2.3,2-4,1.6-5.2c-0.1-0.3-0.3-0.5-0.4-0.7c0.4-3.4-0.4-5.8-2.1-7.2	c0.2-0.4,0.3-0.8,0.3-1.1c0.1-0.3-0.1-0.6-0.3-0.7c-0.2-0.2-0.5-0.2-0.8-0.1c0,0-1.1,0.5-4,0c-3.4-0.5-4.8,0.8-5.9,2.3	c-0.9,0.2-1.5,0.7-2,1.5c-1,1.6-0.8,4-0.6,5.2c-0.3,0.1-0.5,0.4-0.6,0.7c-0.6,1.4,0.7,4.1,2.2,5.4c0.4,0.6,0.9,1.2,1.5,1.7	c-0.3,1.4-1.2,1.5-1.4,1.5c-0.1,0-0.1,0-0.2,0c-2.8,0.6-5.2,2.3-6.8,4.6c-2.1-2.8-3.3-6.2-3.3-9.9C1.5,8.9,8.9,1.5,18,1.5	c9.1,0,16.5,7.4,16.5,16.5C34.5,19.6,34.2,21.1,33.8,22.6z" class="st0"/></svg>