<?xml version="1.0" encoding="utf-8"?>
<!-- Generator: Adobe Illustrator 21.1.0, SVG Export Plug-In . SVG Version: 6.00 Build 0)  -->
<svg version="1.1" id="Layer_1" xmlns="http://www.w3.org/2000/svg" xmlns:xlink="http://www.w3.org/1999/xlink" x="0px" y="0px"
	 viewBox="0 0 48 36" style="enable-background:new 0 0 48 36;" xml:space="preserve">
<style type="text/css">
	.st0{fill:#2B2D4B;}
</style>
<g>
	<path class="st0" d="M34.9,20.6c-0.2,0-0.4-0.1-0.5-0.2l-3.7-3.7c-0.3-0.3-0.3-0.8,0-1.1s0.8-0.3,1.1,0l3.1,3.1l3.1-3.1
		c0.3-0.3,0.8-0.3,1.1,0s0.3,0.8,0,1.1l-3.7,3.7C35.3,20.5,35.1,20.6,34.9,20.6z"/>
</g>
<g>
	<path class="st0" d="M30.3,36H17.7C7.9,36,0,28.1,0,18.5v-1C0,7.9,7.9,0,17.7,0h12.6C40.1,0,48,7.9,48,17.5v1
		C48,28.1,40.1,36,30.3,36z M17.7,1.5c-8.9,0-16.2,7.2-16.2,16v1c0,8.8,7.3,16,16.2,16h12.6c8.9,0,16.2-7.2,16.2-16v-1
		c0-8.8-7.3-16-16.2-16H17.7z"/>
</g>
<g>
	<path class="st0" d="M19.2,28h-4.8c-0.4,0-0.7-0.3-0.8-0.7l-0.1-1.7c-0.6-0.2-1.1-0.6-1.6-0.9l-1.5,0.7c-0.4,0.2-0.8,0-1-0.3
		L7,20.9c-0.2-0.3-0.1-0.8,0.2-1l1.4-1c0-0.3-0.1-0.6-0.1-0.9s0-0.6,0.1-0.9l-1.4-1c-0.4-0.2-0.5-0.7-0.3-1l2.4-4.2
		c0.2-0.3,0.6-0.5,1-0.3l1.5,0.7c0.5-0.4,1-0.7,1.6-0.9l0.1-1.7C13.7,8.3,14,8,14.4,8h4.8c0.4,0,0.7,0.3,0.8,0.7l0.1,1.7
		c0.6,0.2,1.1,0.6,1.6,0.9l1.5-0.7c0.4-0.2,0.8,0,1,0.3l2.4,4.2c0.2,0.3,0.1,0.8-0.2,1l-1.4,1c0,0.3,0.1,0.6,0.1,0.9s0,0.6-0.1,0.9
		l1.4,1c0.3,0.2,0.4,0.7,0.2,1l-2.4,4.2c-0.2,0.3-0.6,0.5-1,0.3l-1.4-0.7c-0.5,0.4-1,0.7-1.6,0.9l-0.1,1.7
		C19.9,27.7,19.6,28,19.2,28z M15.1,26.5h3.4l0.1-1.4c0-0.3,0.2-0.6,0.5-0.7c0.7-0.3,1.4-0.7,2-1.2c0.2-0.2,0.5-0.2,0.8-0.1l1.3,0.6
		l1.7-3l-1.1-0.8c-0.2-0.2-0.4-0.5-0.3-0.8c0.1-0.4,0.1-0.8,0.1-1.2s0-0.8-0.1-1.2c-0.1-0.3,0.1-0.6,0.3-0.8l1.2-0.8l-1.7-3L22,12.7
		c-0.3,0.3-0.6,0.3-0.8,0.1c-0.6-0.5-1.3-0.9-2-1.2c-0.3-0.1-0.5-0.4-0.5-0.7l-0.1-1.4h-3.5L15,11c0,0.3-0.2,0.6-0.5,0.7
		c-0.7,0.3-1.4,0.7-2,1.2c-0.3,0.1-0.6,0.1-0.9,0l-1.3-0.6l-1.7,3l1.2,0.8c0.2,0.2,0.4,0.5,0.3,0.8C10,17.2,10,17.6,10,18
		s0,0.8,0.1,1.2c0.1,0.3-0.1,0.6-0.3,0.8l-1.2,0.8l1.7,3l1.3-0.6c0.3-0.2,0.6-0.2,0.8,0c0.6,0.5,1.3,0.9,2,1.2
		c0.3,0.1,0.5,0.4,0.5,0.7L15.1,26.5z M16.8,21.6c-2,0-3.6-1.6-3.6-3.6s1.6-3.6,3.6-3.6s3.6,1.6,3.6,3.6S18.8,21.6,16.8,21.6z
		 M16.8,15.9c-1.1,0-2.1,0.9-2.1,2.1c0,1.1,0.9,2.1,2.1,2.1c1.1,0,2.1-0.9,2.1-2.1C18.9,16.9,17.9,15.9,16.8,15.9z"/>
</g>
</svg>
