<svg xmlns="http://www.w3.org/2000/svg" xmlns:xlink="http://www.w3.org/1999/xlink" id="Layer_1" x="0" y="0" enable-background="new 0 0 36 36" version="1.1" viewBox="0 0 36 36" xml:space="preserve"><style type="text/css">.st0{fill:#2b2d4b}</style><g><path d="M18,36C8.1,36,0,27.9,0,18S8.1,0,18,0s18,8.1,18,18S27.9,36,18,36z M18,1.5C8.9,1.5,1.5,8.9,1.5,18 S8.9,34.5,18,34.5S34.5,27.1,34.5,18S27.1,1.5,18,1.5z" class="st0"/></g><g><path d="M18,9.4c4.7,0,8.5,3.3,8.5,7.4c0,1.6-0.5,3-1.5,4.1l-0.2,0.2l-0.1,0.3c-0.3,0.8-0.4,1.5-0.4,2.2 c0,1,0.2,1.9,0.6,2.6c-1.1-0.4-2.1-1-2.9-1.8l-0.5-0.5L20.7,24c-0.9,0.1-1.7,0.3-2.7,0.3c-4.7,0-8.5-3.3-8.5-7.4 C9.5,12.8,13.3,9.4,18,9.4 M18,7.9c-5.5,0-10,4-10,8.9c0,4.9,4.5,8.9,10,8.9c1.1,0,2-0.2,2.9-0.3c1.5,1.5,3.7,2.6,6,2.6 c0.3,0,0.8,0,1.1-0.2v-0.6c-1.4-0.6-2.2-2-2.2-3.7c0-0.6,0.2-1.2,0.3-1.7c1.2-1.4,1.8-3.2,1.8-5.1C28,11.9,23.5,7.9,18,7.9L18,7.9z" class="st0"/></g></svg>