<svg xmlns="http://www.w3.org/2000/svg" xmlns:xlink="http://www.w3.org/1999/xlink" id="Layer_1" x="0" y="0" enable-background="new 0 0 45 45" version="1.1" viewBox="0 0 45 45" xml:space="preserve"><style type="text/css">.st0{fill:#ccc}</style><path d="M39.7,36.9C43,33,45,28,45,22.5C45,10.1,34.9,0,22.5,0S0,10.1,0,22.5c0,5.6,2.1,10.7,5.5,14.7	c0,0,0.1,0.1,0.1,0.1C9.7,42,15.8,45,22.5,45c6.7,0,12.7-3,16.9-7.6C39.6,37.3,39.7,37.1,39.7,36.9z M22.5,1.5c11.6,0,21,9.4,21,21	c0,4.8-1.6,9.2-4.4,12.8c-2-3.2-5.3-5.4-9.8-6.4c-0.4-0.1-1.1-0.3-1.1-1.5c0.6-0.7,1.3-1.6,2-2.6c1.8-2.8,2.4-4.9,1.9-6.3	c-0.1-0.4-0.3-0.7-0.5-0.9c0.5-4.3-0.4-7.3-2.7-9c0.2-0.5,0.4-1,0.5-1.5c0.1-0.3-0.1-0.6-0.3-0.7c-0.2-0.2-0.5-0.2-0.8-0.1	c0,0-1.4,0.6-5.1,0.1C19,5.7,17.4,7.3,16,9.3c-1.1,0.3-1.9,0.9-2.5,1.8c-1.3,2-0.9,5-0.7,6.5c-0.4,0.1-0.6,0.4-0.8,0.8	c-0.7,1.5,0.6,4.7,2.7,6.5c0.6,0.7,1.2,1.5,1.9,2.2c-0.4,2-1.8,2.1-1.9,2.1c-0.1,0-0.1,0-0.2,0c-3.6,0.7-6.7,3-8.6,6.2	c-2.8-3.6-4.4-8-4.4-12.9C1.5,10.9,10.9,1.5,22.5,1.5z M27.5,9.5c1.8,1,2.7,3,2.7,5.8c-0.1,0-0.1-0.1-0.2-0.1	c-1-0.6-2.1-0.2-3.2,0.1C26,15.7,25,16,24.1,15.8c-1.4-0.2-1.9-0.7-2.5-1.3c-0.8-0.7-1.6-1.4-3.9-1.7c-1.2-0.1-2.1,0.2-2.9,0.9	c-0.2,0.2-0.5,0.5-0.6,0.7c0-0.9,0.2-1.9,0.7-2.6c0.4-0.7,1-1,1.8-1.2c0.2,0,0.4-0.2,0.5-0.3c1.2-1.8,2.3-3,5.8-2.5	c2.1,0.3,3.6,0.3,4.6,0.2c0,0.1,0,0.1-0.1,0.1c-0.2,0.1-0.4,0.4-0.4,0.7C27.1,9.1,27.2,9.4,27.5,9.5z M13.5,18.9	C13.5,18.9,13.5,18.9,13.5,18.9c0.1,0,0.2,0,0.2,0c0,0,0,0,0,0c0,0,0,0,0.1,0c0,0,0,0,0,0c0.1,0,0.1,0,0.2,0c0,0,0.1,0,0.1,0	c0.1,0,0.2-0.1,0.3-0.2c0,0,0,0,0,0c0,0,0,0,0,0c0.1-0.1,0.1-0.1,0.1-0.2c0,0,0-0.1,0-0.1c0,0,0-0.1,0-0.1c0,0,0.1-2.3,1.3-3.3	c0.5-0.4,1.1-0.6,1.8-0.5c1.7,0.2,2.3,0.7,3,1.3c0.7,0.6,1.5,1.3,3.3,1.6c1.3,0.2,2.5-0.1,3.5-0.5c0.8-0.3,1.6-0.5,2-0.3	c0.3,0.2,0.6,0.7,0.8,1.5c0,0.2,0.1,0.4,0.3,0.5c0,0,0,0,0,0c0,0,0,0,0.1,0c0,0,0.2,0.1,0.2,0.4c0.1,0.4,0.2,1.8-1.8,4.9	c-3.5,4.9-4.8,5.2-6.5,5.2c-1.5,0-4.2-2.2-6.5-5.3c0,0-0.1-0.1-0.1-0.1c-1.4-1.1-2.3-3.1-2.4-4.2C13.4,19.1,13.4,19,13.5,18.9z M17.9,28.2c1.5,1.4,3.2,2.4,4.6,2.4c1.5,0,2.8-0.4,4.5-1.9c0.3,0.6,0.7,1.1,1.4,1.4c-0.4,1.6-2.9,2.8-5.7,2.8c-3,0-5.5-1.3-5.8-3	C17.2,29.5,17.6,29,17.9,28.2z M22.5,43.5c-6.1,0-11.6-2.7-15.5-6.9c1.6-3,4.5-5.2,7.8-5.9c0.2,0,0.3,0,0.5-0.1	c0.7,2.2,3.6,3.8,7.2,3.8c3.6,0,6.5-1.6,7.2-3.9c3.8,1,6.7,3.1,8.3,6C34.2,40.8,28.7,43.5,22.5,43.5z" class="st0"/></svg>