<svg xmlns="http://www.w3.org/2000/svg" xmlns:xlink="http://www.w3.org/1999/xlink" id="Layer_1" x="0" y="0" enable-background="new 0 0 20 24" version="1.1" viewBox="0 0 20 24" xml:space="preserve"><g><path d="M18.2,15.6v-3.9c0-3.8-2.6-6.9-6-7.9c0.2-0.4,0.4-0.8,0.4-1.3C12.5,1.1,11.4,0,10,0S7.5,1.1,7.5,2.5c0,0.5,0.1,0.9,0.4,1.3 c-3.5,0.9-6,4.1-6,7.9v3.9C0.7,16.1,0,17.2,0,18.4c0,1.7,1.4,3,3.1,3h3.7C7.1,22.9,8.4,24,10,24s2.9-1.1,3.2-2.6h3.7 c1.7,0,3.1-1.4,3.1-3C20,17.2,19.3,16.1,18.2,15.6z M9,2.5c0-0.6,0.5-1,1-1s1,0.5,1,1s-0.5,1-1,1S9,3.1,9,2.5z M3.3,11.7 c0-3.7,3-6.7,6.7-6.7s6.7,3,6.7,6.7v3.6H3.3V11.7z M10,22.5c-0.7,0-1.4-0.4-1.7-1.1h3.3C11.4,22.1,10.7,22.5,10,22.5z M16.9,19.9 h-3.6H6.7H3.1c-0.9,0-1.6-0.7-1.6-1.6s0.7-1.6,1.6-1.6h13.9c0.9,0,1.6,0.7,1.6,1.6S17.8,19.9,16.9,19.9z"/><path d="M12.7,7.4c-0.4-0.1-0.8,0.2-0.8,0.6c-0.1,0.4,0.2,0.8,0.7,0.8c1.4,0.2,1.4,2,1.4,2.1v2.8c0,0.4,0.3,0.7,0.8,0.7 c0.4,0,0.8-0.3,0.8-0.7V11C15.4,9.9,14.8,7.7,12.7,7.4z"/></g></svg>