<svg xmlns="http://www.w3.org/2000/svg" xmlns:xlink="http://www.w3.org/1999/xlink" id="Layer_1" x="0" y="0" enable-background="new 0 0 150 136" version="1.1" viewBox="0 0 150 136" xml:space="preserve"><style type="text/css">.st0{fill:#fff}</style><path d="M52.1,88.5c-2,11.7-10.7,11.8-11.1,11.8c-0.1,0-0.1,0-0.2,0C22.1,104.2,6.4,117.8,0,136h1.6	c6.3-17.4,21.4-30.5,39.5-34.2c0.4,0,2.3-0.1,4.6-1.2c0.8,9.7,13.8,17.5,29.6,17.5c15.8,0,28.8-7.8,29.6-17.5	c20.7,4.9,36.5,17.7,43.5,35.5h1.6c0,0,0,0,0,0c-7.2-18.7-23.9-32.3-45.7-37.1c-1.8-0.4-7-1.6-6.9-10c2.8-3.2,5.8-7.1,9.3-12	c9-14.1,9.4-21.5,8.2-25.2c-0.7-2.1-1.9-3.1-2.6-3.5c2.4-19.6-1.8-32.9-12.6-39.5c1.7-2.1,2.8-6.7,3-7.8c0.1-0.3-0.1-0.6-0.3-0.7	c-0.2-0.2-0.5-0.2-0.8-0.1c-0.1,0-6.6,3.3-23.8,0.6C60.1-2.1,53.9,4.6,48.3,13c-4.5,0.9-7.9,3.3-10.3,7c-5.9,9.4-3.1,24.7-2.1,28.8	c-2,0-3.4,0.8-4.2,2.5C29.1,57,34.9,70.1,43,76.8c2.8,3.7,9.2,10.7,9.2,10.7S52.2,88.2,52.1,88.5z M39.3,20.9	c2.2-3.4,5.4-5.6,9.6-6.4c0.2,0,0.4-0.2,0.5-0.3c5.6-8.4,11.2-14.7,28.2-12C91,4.2,98.1,2.8,100.9,2c-0.6,2.5-1.7,5.6-2.8,6.2	c-0.2,0.1-0.4,0.4-0.4,0.7c0,0.3,0.1,0.5,0.4,0.7c10.3,5.7,14.7,17.6,13.1,35.3c-1.1-2.9-2.5-4.8-4.3-5.8c-3.3-1.9-7.4-0.5-11.8,0.9	c-4.1,1.3-8.7,2.8-13.3,2c-6.7-1.2-9.4-3.6-12.3-6.1c-3.2-2.8-6.5-5.7-15.4-6.6c-4.4-0.4-8,0.7-11,3.3c-3.9,3.4-5.6,8.8-6.3,12.6	C35.7,38.8,34.8,27.9,39.3,20.9z M44.2,75.9c0,0-0.1-0.1-0.1-0.1C37.3,70.1,30.6,57.3,33,52c0.5-1.1,1.4-1.6,2.7-1.6	c0.3,0,0.6,0,1,0.1c0,0,0,0,0,0c0,0,0,0,0.1,0c0,0,0,0,0,0c0.1,0,0.1,0,0.2,0c0,0,0.1,0,0.1,0c0.1,0,0.2-0.1,0.3-0.2c0,0,0,0,0,0	c0,0,0,0,0-0.1c0.1-0.1,0.1-0.1,0.1-0.2c0,0,0-0.1,0-0.1c0,0,0-0.1,0-0.1c0-0.1,0.3-10.9,6.4-16.3c2.6-2.3,5.9-3.3,9.8-2.9	c8.5,0.8,11.4,3.4,14.6,6.2c2.9,2.6,5.9,5.2,13,6.5c5,0.9,9.8-0.7,14.1-2c4.2-1.4,7.9-2.5,10.6-1c2.1,1.2,3.6,4,4.6,8.5c0,0,0,0,0,0	c0,0.1,0.1,0.2,0.1,0.2c0,0,0,0.1,0.1,0.1c0,0,0.1,0.1,0.1,0.1c0,0,0.1,0,0.1,0.1c0,0,0,0,0.1,0c0,0,1.5,0.6,2.3,2.9	c1.1,3.4,0.7,10.3-8,23.9C89.6,98.2,83.1,99.9,74.9,99.9C67.4,99.9,55.1,90.2,44.2,75.9z M53.6,88.9c7.4,7.2,15.3,12.6,21.3,12.6	c7.2,0,12.8-1.9,21.1-10.9c0.3,3.9,2,8.1,7.4,9.6c-0.5,9.1-12.9,16.4-28.1,16.4c-15.4,0-28-7.5-28.1-16.8	C49.8,98,52.5,94.8,53.6,88.9z" class="st0"/></svg>