<svg xmlns="http://www.w3.org/2000/svg" xmlns:xlink="http://www.w3.org/1999/xlink" id="Layer_1" x="0" y="0" enable-background="new 0 0 22 21" version="1.1" viewBox="0 0 22 21" xml:space="preserve"><style type="text/css">.st0{fill:#ccc}</style><g><path d="M19.8,2h-3V0.8C16.8,0.3,16.5,0,16,0s-0.8,0.3-0.8,0.8V2h-3.5V0.8C11.8,0.3,11.4,0,11,0s-0.8,0.3-0.8,0.8V2 H6.7V0.8C6.7,0.3,6.3,0,5.9,0S5.2,0.3,5.2,0.8V2H2.2C1,2,0,3,0,4.2v14.6C0,20,1,21,2.2,21h17.6c1.2,0,2.2-1,2.2-2.2V4.2 C22,3,21,2,19.8,2z M2.2,3.5h2.9v1.3c0,0.4,0.3,0.8,0.8,0.8s0.8-0.3,0.8-0.8V3.5h3.6v1.3c0,0.4,0.3,0.8,0.8,0.8s0.8-0.3,0.8-0.8 V3.5h3.5v1.3c0,0.4,0.3,0.8,0.8,0.8s0.8-0.3,0.8-0.8V3.5h3c0.4,0,0.7,0.3,0.7,0.7v3h-19v-3C1.5,3.8,1.8,3.5,2.2,3.5z M19.8,19.5 H2.2c-0.4,0-0.7-0.3-0.7-0.7v-10h19v10C20.5,19.2,20.2,19.5,19.8,19.5z" class="st0"/><circle cx="5.9" cy="11.8" r="1" class="st0"/><circle cx="11" cy="11.8" r="1" class="st0"/><circle cx="16" cy="11.8" r="1" class="st0"/><circle cx="5.9" cy="15.6" r="1" class="st0"/><circle cx="11" cy="15.6" r="1" class="st0"/><circle cx="16" cy="15.6" r="1" class="st0"/></g></svg>