<?xml version="1.0" encoding="utf-8"?>
<!-- Generator: Adobe Illustrator 21.1.0, SVG Export Plug-In . SVG Version: 6.00 Build 0)  -->
<svg version="1.1" id="Layer_1" xmlns="http://www.w3.org/2000/svg" xmlns:xlink="http://www.w3.org/1999/xlink" x="0px" y="0px"
	 viewBox="0 0 13 13" style="enable-background:new 0 0 13 13;" xml:space="preserve">
<g>
	<path d="M6.5,1.5c2.8,0,5,1.9,5,4.3c0,0.9-0.3,1.7-0.9,2.4c-0.1,0.1-0.1,0.2-0.2,0.3c-0.3,0.5-0.4,1.1-0.4,1.7c0,0.2,0,0.4,0,0.6
		c-0.2-0.2-0.4-0.3-0.6-0.5C9.2,10,8.8,9.8,8.4,9.8c-0.1,0-0.3,0-0.4,0.1c-0.5,0.1-1,0.2-1.5,0.2c-2.8,0-5-1.9-5-4.3
		C1.5,3.4,3.7,1.5,6.5,1.5 M6.5,0C2.9,0,0,2.6,0,5.8c0,3.2,2.9,5.8,6.5,5.8c0.7,0,1.3-0.1,1.9-0.2c1,1,2.4,1.7,3.9,1.7
		c0.2,0,0.5,0,0.7-0.1v-0.4c-0.9-0.4-1.4-1.3-1.4-2.4c0-0.4,0.1-0.8,0.2-1.1C12.6,8.2,13,7,13,5.8C13,2.6,10.1,0,6.5,0L6.5,0z"/>
</g>
</svg>
