<?xml version="1.0" encoding="utf-8"?>
<!-- Generator: Adobe Illustrator 21.1.0, SVG Export Plug-In . SVG Version: 6.00 Build 0)  -->
<svg version="1.1" id="Layer_1" xmlns="http://www.w3.org/2000/svg" xmlns:xlink="http://www.w3.org/1999/xlink" x="0px" y="0px"
	 viewBox="0 0 12 12" style="enable-background:new 0 0 12 12;" xml:space="preserve">
<path d="M10.2,9.2L7.1,6l3.2-3.2c0.3-0.3,0.3-0.8,0-1.1s-0.8-0.3-1.1,0L6,4.9L2.8,1.8c-0.3-0.3-0.8-0.3-1.1,0s-0.3,0.8,0,1.1L4.9,6
	L1.8,9.2c-0.3,0.3-0.3,0.8,0,1.1s0.8,0.3,1.1,0L6,7.1l3.2,3.2c0.3,0.3,0.8,0.3,1.1,0S10.5,9.5,10.2,9.2z"/>
</svg>
