<?xml version="1.0" encoding="utf-8"?>
<!-- Generator: Adobe Illustrator 21.1.0, SVG Export Plug-In . SVG Version: 6.00 Build 0)  -->
<svg version="1.1" id="Layer_1" xmlns="http://www.w3.org/2000/svg" xmlns:xlink="http://www.w3.org/1999/xlink" x="0px" y="0px"
	 viewBox="0 0 18 22" style="enable-background:new 0 0 18 22;" xml:space="preserve">
<style type="text/css">
	.st0{fill:#CCCCCC;}
</style>
<path class="st0" d="M17.1,0H4.4C4.1,0,3.9,0.1,3.7,0.3L0.3,3.2C0.1,3.4,0,3.6,0,3.8v17.2C0,21.5,0.4,22,0.9,22h16.1
	c0.5,0,0.9-0.4,0.9-0.9V0.9C18,0.4,17.6,0,17.1,0z M4.2,2.2v1.5H2.6L4.2,2.2z M16.1,20.3H1.9V5.4h3.2c0.5,0,0.9-0.4,0.9-0.9V1.7h10
	V20.3z"/>
</svg>
