<svg xmlns="http://www.w3.org/2000/svg" xmlns:xlink="http://www.w3.org/1999/xlink" id="Layer_1" x="0" y="0" enable-background="new 0 0 10 10" version="1.1" viewBox="0 0 10 10" xml:space="preserve"><style type="text/css">.st0{fill-rule:evenodd;clip-rule:evenodd;fill:#ccc}</style><linearGradient id="SVGID_1_" x1="-2" x2="-2" y1="-2" y2="-3" gradientUnits="userSpaceOnUse"><stop offset="0" stop-color="#656565"/><stop offset=".618" stop-color="#1B1B1B"/><stop offset=".629" stop-color="#545454"/><stop offset=".983" stop-color="#3E3E3E"/></linearGradient><g><g><path d="M0,2h2V0H0V2z M4,2h2V0H4V2z M8,0v2h2V0H8z M0,6h2V4H0V6z M4,6h2V4H4V6z M8,6h2V4H8V6z M0,10h2V8H0V10z M4,10 h2V8H4V10z M8,10h2V8H8V10z" class="st0"/></g></g></svg>