<svg xmlns="http://www.w3.org/2000/svg" xmlns:xlink="http://www.w3.org/1999/xlink" id="Layer_1" x="0" y="0" enable-background="new 0 0 18 18" version="1.1" viewBox="0 0 18 18" xml:space="preserve"><path d="M14.8,0H3.2C1.5,0,0,1.5,0,3.2v11.5C0,16.5,1.5,18,3.2,18h11.5c1.8,0,3.2-1.5,3.2-3.2V3.2C18,1.5,16.5,0,14.8,0z M14.8,1.5	c0.4,0,0.8,0.1,1.1,0.4l-6,6c-0.4,0.4-1.2,0.4-1.6,0l-6-6c0.3-0.2,0.7-0.4,1.1-0.4H14.8z M14.8,16.5H3.2c-1,0-1.8-0.8-1.8-1.8V3.3	L7.1,9C7.6,9.5,8.3,9.7,9,9.7c0.7,0,1.4-0.3,1.9-0.8l5.6-5.6v11.4C16.5,15.7,15.7,16.5,14.8,16.5z"/></svg>