<?xml version="1.0" encoding="utf-8"?>
<!-- Generator: Adobe Illustrator 21.1.0, SVG Export Plug-In . SVG Version: 6.00 Build 0)  -->
<svg version="1.1" id="Layer_1" xmlns="http://www.w3.org/2000/svg" xmlns:xlink="http://www.w3.org/1999/xlink" x="0px" y="0px"
	 viewBox="0 0 16 13" style="enable-background:new 0 0 16 13;" xml:space="preserve">
<style type="text/css">
	.st0{fill:#1D1D1B;}
</style>
<g>
	<path class="st0" d="M8,12.3c-5.1,0-7.7-5.3-7.8-5.5L0,6.4l0.2-0.3C0.3,5.9,2.9,0.7,8,0.7c4.8,0,7.7,5.1,7.8,5.4L16,6.4l-0.2,0.3
		C15.7,7,12.8,12.3,8,12.3z M1.6,6.4c0.6,1.1,2.9,4.4,6.4,4.4c3.3,0,5.7-3.3,6.4-4.4c-0.7-1.1-3-4.3-6.4-4.3
		C4.4,2.2,2.2,5.4,1.6,6.4z"/>
</g>
<g>
	<path class="st0" d="M8,10.8c-2.3,0-4.3-1.9-4.3-4.3c0-2.3,1.9-4.3,4.3-4.3c2.3,0,4.3,1.9,4.3,4.3C12.3,8.8,10.3,10.8,8,10.8z
		 M8,3.7c-1.6,0-2.8,1.3-2.8,2.8c0,1.6,1.3,2.8,2.8,2.8c1.6,0,2.8-1.3,2.8-2.8C10.8,4.9,9.6,3.7,8,3.7z"/>
</g>
</svg>
