<svg xmlns="http://www.w3.org/2000/svg" xmlns:xlink="http://www.w3.org/1999/xlink" id="Layer_1" x="0" y="0" enable-background="new 0 0 18 18" version="1.1" viewBox="0 0 18 18" xml:space="preserve"><g><path d="M18,9c0-5-4-9-9-9S0,4,0,9c0,3,1.5,5.7,3.8,7.3v0L4,16.5c0,0,0,0,0,0l0.1,0.1c0,0,0.1,0,0.1,0c0.3,0.2,0.6,0.4,0.9,0.5 c0.1,0,0.1,0.1,0.2,0.1c0.4,0.2,0.7,0.3,1.1,0.4c0,0,0.1,0,0.1,0c0.3,0.1,0.7,0.2,1,0.2c0.1,0,0.2,0,0.3,0C8.2,18,8.6,18,9,18 s0.8,0,1.2-0.1c0.1,0,0.2,0,0.3,0c0.3-0.1,0.7-0.1,1-0.2c0,0,0.1,0,0.1,0c0.4-0.1,0.7-0.3,1.1-0.4c0.1,0,0.1-0.1,0.2-0.1 c0.3-0.2,0.6-0.3,0.9-0.5c0,0,0.1,0,0.1,0l0.1-0.1c0,0,0,0,0,0l0.2-0.1v0C16.5,14.7,18,12,18,9z M12.8,15.6 C12.8,15.6,12.8,15.6,12.8,15.6c-2.4,1.4-5.3,1.4-7.6,0c0,0,0,0-0.1,0V6.9h7.7V15.6z M14.2,14.5v-9H3.8v9C2.3,13.1,1.4,11.2,1.4,9 c0-4.2,3.4-7.6,7.6-7.6s7.6,3.4,7.6,7.6C16.6,11.2,15.7,13.1,14.2,14.5z"/><path d="M7.3,10.4h3.5c0.4,0,0.7-0.3,0.7-0.7c0-0.4-0.3-0.7-0.7-0.7H7.3c-0.4,0-0.7,0.3-0.7,0.7C6.6,10.1,6.9,10.4,7.3,10.4z"/><path d="M7.3,13h3.5c0.4,0,0.7-0.3,0.7-0.7s-0.3-0.7-0.7-0.7H7.3c-0.4,0-0.7,0.3-0.7,0.7S6.9,13,7.3,13z"/><path d="M7.3,15.5h3.5c0.4,0,0.7-0.3,0.7-0.7s-0.3-0.7-0.7-0.7H7.3c-0.4,0-0.7,0.3-0.7,0.7S6.9,15.5,7.3,15.5z"/></g></svg>