<svg xmlns="http://www.w3.org/2000/svg" xmlns:xlink="http://www.w3.org/1999/xlink" id="Layer_1" x="0" y="0" enable-background="new 0 0 16 13" version="1.1" viewBox="0 0 16 13" xml:space="preserve"><path d="M14.3,4.8c0.5-0.5,0.8-1.1,0.8-1.9c0-1.4-1.1-2.5-2.5-2.5s-2.5,1.1-2.5,2.5c0,0.7,0.3,1.4,0.8,1.8c-0.2,0-0.4,0.2-0.5,0.4	c0-0.1,0-0.2,0-0.3c0-1.4-1.1-2.5-2.5-2.5c-0.9,0-1.6,0.4-2.1,1.1c0-0.2,0.1-0.3,0.1-0.5c0-1.4-1.1-2.5-2.5-2.5S0.9,1.5,0.9,2.9	c0,0.7,0.3,1.4,0.8,1.9C0.7,5,0,5.9,0,6.9v3c0,0.4,0.3,0.7,0.7,0.7h3.8v1.2c0,0.4,0.3,0.7,0.7,0.7h5.3c0.4,0,0.7-0.3,0.7-0.7v-1.2h4	c0.4,0,0.7-0.3,0.7-0.7v-3C16,5.9,15.3,5,14.3,4.8z M12.6,1.9c0.6,0,1,0.5,1,1s-0.5,1-1,1s-1-0.5-1-1S12.1,1.9,12.6,1.9z M7.9,3.8	c0.6,0,1,0.5,1,1s-0.5,1-1,1c-0.6,0-1-0.5-1-1S7.3,3.8,7.9,3.8z M5.4,4.4c0,0.2-0.1,0.3-0.1,0.5c0,0,0,0,0,0	C5.3,4.8,5.2,4.8,5.1,4.8C5.2,4.7,5.3,4.5,5.4,4.4z M3.4,1.9c0.6,0,1,0.5,1,1s-0.5,1-1,1s-1-0.5-1-1S2.8,1.9,3.4,1.9z M1.5,9.2V6.9	c0-0.4,0.3-0.7,0.7-0.7h2.8c0.3,0,0.5-0.2,0.7-0.4C5.7,6.2,6,6.5,6.2,6.7c-1,0.2-1.7,1.1-1.7,2.1v0.3H1.5z M9.8,11.1l-3.8,0V8.8	c0-0.4,0.3-0.7,0.7-0.7h2.5c0.4,0,0.7,0.3,0.7,0.7V11.1z M14.5,9.1l-3.2,0V8.8c0-1-0.7-1.9-1.7-2.1c0.4-0.3,0.6-0.7,0.7-1.2	c0,0.4,0.3,0.7,0.7,0.7h2.8c0.4,0,0.7,0.3,0.7,0.7V9.1z"/></svg>