<svg xmlns="http://www.w3.org/2000/svg" xmlns:xlink="http://www.w3.org/1999/xlink" id="Layer_1" x="0" y="0" enable-background="new 0 0 14 14" version="1.1" viewBox="0 0 14 14" xml:space="preserve"><style type="text/css">.st0{fill:#2b2d4b}</style><linearGradient id="SVGID_1_" x1="0" x2="0" y1="0" y2="-1" gradientUnits="userSpaceOnUse"><stop offset="0" stop-color="#656565"/><stop offset=".618" stop-color="#1B1B1B"/><stop offset=".629" stop-color="#545454"/><stop offset=".983" stop-color="#3E3E3E"/></linearGradient><path d="M7,0C3.1,0,0,3.1,0,7c0,3.9,3.1,7,7,7s7-3.1,7-7C14,3.1,10.9,0,7,0z M9.9,7.8H7.8v2.2c0,0.4-0.3,0.8-0.8,0.8	s-0.8-0.3-0.8-0.8V7.8H4.1C3.7,7.8,3.3,7.4,3.3,7s0.3-0.8,0.8-0.8h2.2V4.1c0-0.4,0.3-0.8,0.8-0.8s0.8,0.3,0.8,0.8v2.2h2.2	c0.4,0,0.8,0.3,0.8,0.8S10.3,7.8,9.9,7.8z" class="st0"/></svg>