<svg xmlns="http://www.w3.org/2000/svg" xmlns:xlink="http://www.w3.org/1999/xlink" id="Layer_1" x="0" y="0" enable-background="new 0 0 18 18" version="1.1" viewBox="0 0 18 18" xml:space="preserve"><g><path d="M17.6,16.7l-4.9-4.9c1.1-1.3,1.7-2.9,1.7-4.7c0-1.9-0.7-3.7-2.1-5c-2.8-2.8-7.3-2.8-10.1,0c-2.8,2.8-2.8,7.3,0,10.1 c1.3,1.3,3.1,2.1,5,2.1c1.6,0,3-0.5,4.3-1.4l4.9,4.9c0.1,0.1,0.3,0.2,0.5,0.2c0.2,0,0.4-0.1,0.5-0.2C17.9,17.5,17.9,17,17.6,16.7z M3.3,11.1c-2.2-2.2-2.2-5.7,0-7.9c1.1-1.1,2.5-1.6,4-1.6c1.4,0,2.9,0.5,4,1.6c1.1,1.1,1.6,2.5,1.6,4s-0.6,2.9-1.6,4 c-1.1,1.1-2.5,1.6-4,1.6C5.8,12.7,4.4,12.2,3.3,11.1z"/><path d="M10.4,3.7c-0.3-0.3-0.8-0.3-1.1,0C9,4,9,4.5,9.3,4.8c2,2,0.8,3.9,0.6,4.1c-0.2,0.3-0.2,0.8,0.2,1.1 c0.1,0.1,0.3,0.1,0.4,0.1c0.2,0,0.5-0.1,0.6-0.3C11.9,8.7,12.7,6.1,10.4,3.7z"/></g></svg>