<svg xmlns="http://www.w3.org/2000/svg" xmlns:xlink="http://www.w3.org/1999/xlink" id="Layer_1" x="0" y="0" enable-background="new 0 0 12 12" version="1.1" viewBox="0 0 12 12" xml:space="preserve"><style type="text/css">.st0{fill:#ccc}</style><g><path d="M5.4,5.2c0.3,0.3,0.9,0.3,1.2,0l4.8-4.8C11,0.2,10.6,0,10.2,0H1.8C1.4,0,1,0.2,0.6,0.4L5.4,5.2z" class="st0"/><path d="M7.4,6C7,6.3,6.5,6.5,6,6.5S5,6.3,4.6,6L0.1,1.4C0,1.5,0,1.7,0,1.8v8.4c0,1,0.8,1.8,1.8,1.8h8.4 c1,0,1.8-0.8,1.8-1.8V1.8c0-0.1,0-0.3-0.1-0.4L7.4,6z" class="st0"/></g></svg>