<?xml version="1.0" encoding="utf-8"?>
<!-- Generator: Adobe Illustrator 21.1.0, SVG Export Plug-In . SVG Version: 6.00 Build 0)  -->
<svg version="1.1" id="Layer_1" xmlns="http://www.w3.org/2000/svg" xmlns:xlink="http://www.w3.org/1999/xlink" x="0px" y="0px"
	 viewBox="0 0 30 30" style="enable-background:new 0 0 30 30;" xml:space="preserve">
<g>
	<g>
		<path d="M3.2,29.7c-1.7,0-3.2-1.5-3.2-3.2V6.3c0-1.7,1.4-3.2,3.2-3.2H7V1.7c0-0.8,0.5-1.3,1.1-1.3c0.6,0,1.3,0.5,1.3,1.3v1.5h4.3
			V1.7c0-0.8,0.6-1.3,1.3-1.3c0.4,0,0.7,0.2,0.9,0.4c0.1,0.2,0.3,0.5,0.2,0.9l0,1.4h4.3V1.7c0-0.8,0.5-1.3,1.3-1.3S23,0.8,23,1.7
			v1.5h3.8c1.7,0,3.2,1.5,3.2,3.2v20.1c0,1.7-1.4,3.2-3.2,3.2H3.2z M2.4,26.4c0,0.4,0.3,0.8,0.7,0.8h23.7c0.4,0,0.7-0.3,0.7-0.8
			V12.9H2.4V26.4z M27.9,10.3V6.3c0-0.4-0.3-0.8-0.7-0.8h-3.8v1.6c0,0.8-0.5,1.3-1.3,1.3c-0.8,0-1.3-0.7-1.3-1.3V5.6h-4.3v1.6
			c0,0.8-0.5,1.3-1.3,1.3c-0.8,0-1.3-0.7-1.3-1.3V5.6H9.4v1.6c0,0.8-0.5,1.3-1.3,1.3c-0.8,0-1.3-0.7-1.3-1.3V5.6H3.2
			c-0.3,0-0.6,0.3-0.6,0.7l0,4H27.9z"/>
	</g>
	<g>
		<ellipse cx="8.1" cy="16.8" rx="1.5" ry="1.6"/>
	</g>
	<g>
		<ellipse cx="15" cy="16.8" rx="1.5" ry="1.6"/>
	</g>
	<g>
		<ellipse cx="21.7" cy="16.8" rx="1.5" ry="1.6"/>
	</g>
	<g>
		<ellipse cx="8.1" cy="22" rx="1.5" ry="1.6"/>
	</g>
	<g>
		<ellipse cx="15" cy="22" rx="1.5" ry="1.6"/>
	</g>
	<g>
		<ellipse cx="21.7" cy="22" rx="1.5" ry="1.6"/>
	</g>
</g>
</svg>
