<?xml version="1.0" encoding="utf-8"?>
<!-- Generator: Adobe Illustrator 21.1.0, SVG Export Plug-In . SVG Version: 6.00 Build 0)  -->
<svg version="1.1" id="Layer_1" xmlns="http://www.w3.org/2000/svg" xmlns:xlink="http://www.w3.org/1999/xlink" x="0px" y="0px"
	 viewBox="0 0 30 30" style="enable-background:new 0 0 30 30;" xml:space="preserve">
<g>
	<path d="M25.2,19.5v-4.9c0-4.8-3.2-8.6-7.5-9.9c0.2-0.5,0.5-1,0.5-1.6C18.1,1.4,16.8,0,15,0s-3.1,1.4-3.1,3.1
		c0,0.6,0.1,1.1,0.5,1.6C8,5.9,4.9,9.9,4.9,14.6v4.9c-1.5,0.6-2.4,2-2.4,3.5c0,2.1,1.8,3.8,3.9,3.8H11c0.4,1.9,2,3.2,4,3.2
		s3.6-1.4,4-3.2h4.6c2.1,0,3.9-1.8,3.9-3.8C27.5,21.5,26.6,20.1,25.2,19.5z M13.8,3.1c0-0.8,0.6-1.2,1.2-1.2s1.2,0.6,1.2,1.2
		S15.6,4.4,15,4.4S13.8,3.9,13.8,3.1z M6.6,14.6c0-4.6,3.8-8.4,8.4-8.4s8.4,3.8,8.4,8.4v4.5H6.6V14.6z M15,28.1
		c-0.9,0-1.8-0.5-2.1-1.4H17C16.8,27.6,15.9,28.1,15,28.1z M23.6,24.9h-4.5h-8.2H6.4c-1.1,0-2-0.9-2-2c0-1.1,0.9-2,2-2h17.4
		c1.1,0,2,0.9,2,2C25.8,24,24.8,24.9,23.6,24.9z"/>
	<path d="M18.4,9.2c-0.5-0.1-1,0.2-1,0.8c-0.1,0.5,0.2,1,0.9,1c1.7,0.2,1.7,2.5,1.7,2.6v3.5c0,0.5,0.4,0.9,1,0.9c0.5,0,1-0.4,1-0.9
		v-3.4C21.8,12.4,21,9.6,18.4,9.2z"/>
</g>
</svg>
