<svg xmlns="http://www.w3.org/2000/svg" xmlns:xlink="http://www.w3.org/1999/xlink" id="Layer_1" x="0" y="0" enable-background="new 0 0 30 30" version="1.1" viewBox="0 0 30 30" xml:space="preserve"><style type="text/css">.st0{fill:#020203}</style><g><path d="M14.8,16c2.3,0,4.2-1.9,4.2-4.3s-1.9-4.3-4.2-4.3s-4.3,1.9-4.3,4.3S12.5,16,14.8,16z M14.8,9 c1.5,0,2.8,1.2,2.8,2.8s-1.2,2.8-2.8,2.8s-2.8-1.2-2.8-2.8S13.3,9,14.8,9z" class="st0"/><path d="M5.9,12.2c2.3,0,4.3-1.9,4.3-4.3S8.2,3.7,5.9,3.7S1.6,5.6,1.6,8S3.5,12.2,5.9,12.2z M5.9,5.2 c1.5,0,2.8,1.2,2.8,2.8s-1.2,2.8-2.8,2.8S3.1,9.5,3.1,8S4.4,5.2,5.9,5.2z" class="st0"/><path d="M24.1,12.2c2.3,0,4.3-1.9,4.3-4.3s-1.9-4.3-4.3-4.3S19.9,5.6,19.9,8S21.8,12.2,24.1,12.2z M24.1,5.2 c1.5,0,2.8,1.2,2.8,2.8s-1.2,2.8-2.8,2.8S21.4,9.5,21.4,8S22.6,5.2,24.1,5.2z" class="st0"/><path d="M26.5,12.3h-5.5c-0.4,0-0.8,0.3-0.8,0.8s0.3,0.8,0.8,0.8h5.5c1.1,0,2,0.9,2,2V21h-7.8v-1.4 c0-1.9-1.6-3.5-3.5-3.5h-4.8c-1.9,0-3.5,1.6-3.5,3.5V21H1.4v-5.2c0-1.1,0.9-2,2-2h5.5c0.4,0,0.8-0.3,0.8-0.8s-0.3-0.8-0.8-0.8H3.5 c-1.9,0-3.5,1.6-3.5,3.5v5.9c0,0.4,0.3,0.8,0.8,0.8h8.2v3.1c0,0.4,0.3,0.8,0.8,0.8H20c0.4,0,0.8-0.3,0.8-0.8v-3.1h8.5 c0.4,0,0.8-0.3,0.8-0.8v-5.9C30.1,13.8,28.5,12.3,26.5,12.3z M19.3,24.8h-8.9v-5.2c0-1.1,0.9-2,2-2h4.8c1.1,0,2,0.9,2,2V24.8z" class="st0"/></g></svg>