<?xml version="1.0" encoding="utf-8"?>
<!-- Generator: Adobe Illustrator 21.1.0, SVG Export Plug-In . SVG Version: 6.00 Build 0)  -->
<svg version="1.1" id="Layer_1" xmlns="http://www.w3.org/2000/svg" xmlns:xlink="http://www.w3.org/1999/xlink" x="0px" y="0px"
	 viewBox="0 0 30 30" style="enable-background:new 0 0 30 30;" xml:space="preserve">
<style type="text/css">
	.st0{fill:#020203;}
</style>
<path class="st0" d="M28.3,26c-0.7-0.3-1.1-1-1.1-1.8c0-0.3,0.1-0.5,0.2-0.8c0.9-1.1,1.4-2.5,1.4-3.9c0-2-1-3.9-2.6-5.1
	c0-0.3,0.1-0.7,0.1-1c0-6.2-5.6-11.2-12.5-11.2S1.2,7.2,1.2,13.4c0,2.3,0.8,4.6,2.3,6.4c0.2,0.5,0.3,1,0.3,1.6
	c0,1.5-0.8,2.9-2.2,3.6c-0.3,0.1-0.4,0.4-0.4,0.7v0.6c0,0.4,0.3,0.7,0.6,0.7c0.5,0.1,1,0.1,1.4,0.1c2.7,0,5.3-1,7.3-2.9
	c1.7,0.4,3.6,0.4,5.3,0.2c1.4,1.2,3.2,1.9,5.3,1.9c0.6,0,1.2-0.1,1.7-0.2c1.2,1.1,2.7,1.7,4.3,1.7c0.3,0,0.6,0,0.9-0.1
	c0.4-0.1,0.6-0.4,0.6-0.7v-0.4C28.8,26.4,28.6,26.1,28.3,26z M10.6,22.6c-0.3-0.1-0.5,0-0.7,0.2c-1.7,1.8-4,2.8-6.4,2.8
	c1.2-1,2-2.6,2-4.2c0-0.8-0.2-1.6-0.5-2.3c0-0.1-0.1-0.1-0.1-0.2c-1.3-1.6-2-3.6-2-5.6c0-5.3,4.9-9.7,11-9.7s11,4.3,11,9.7
	c0,0,0,0.1,0,0.1c-1.1-0.5-2.3-0.8-3.5-0.8c-4.2,0-7.6,3.1-7.6,6.8c0,1.3,0.4,2.5,1.1,3.5C13.3,23.1,11.9,23,10.6,22.6z M26.4,26.2
	c-1-0.2-2-0.7-2.7-1.5c-0.1-0.2-0.3-0.2-0.5-0.2c-0.1,0-0.1,0-0.2,0c-0.6,0.2-1.2,0.2-1.8,0.2c-3.3,0-6.1-2.4-6.1-5.3
	c0-2.9,2.7-5.3,6.1-5.3c1.4,0,2.8,0.4,3.8,1.2c0,0,0,0,0,0c1.4,1,2.3,2.5,2.3,4.1c0,1.1-0.4,2.1-1.1,3c0,0-0.1,0.1-0.1,0.2
	c-0.2,0.5-0.3,1-0.3,1.5C25.7,24.9,26,25.7,26.4,26.2z"/>
</svg>
