<?xml version="1.0" encoding="utf-8"?>
<!-- Generator: Adobe Illustrator 21.1.0, SVG Export Plug-In . SVG Version: 6.00 Build 0)  -->
<svg version="1.1" id="Layer_1" xmlns="http://www.w3.org/2000/svg" xmlns:xlink="http://www.w3.org/1999/xlink" x="0px" y="0px"
	 viewBox="0 0 30 30" style="enable-background:new 0 0 30 30;" xml:space="preserve">
<path d="M28.2,13.5h-2.6v-2.1c0-0.6-0.3-1.1-0.7-1.5c0.4-0.5,0.7-1.2,0.7-1.9c0-1.5-2-3.6-2.4-4l-0.5-0.5l-0.5,0.5
	c-0.4,0.4-2.5,2.6-2.5,4.1c0,0.7,0.3,1.4,0.7,1.9c-0.4,0.3-0.7,0.9-0.7,1.5v2.1H18V9.1c0-0.6-0.3-1.1-0.7-1.5
	C17.7,7.1,18,6.4,18,5.7c0-1.5-2-3.6-2.4-4l-0.5-0.5l-0.5,0.5C14.1,2,12,4.2,12,5.7c0,0.7,0.3,1.4,0.7,1.9C12.3,7.9,12,8.5,12,9.1
	v4.4h-1.6v-2.1c0-0.6-0.3-1.1-0.7-1.5c0.4-0.5,0.7-1.2,0.7-1.9c0-1.5-2-3.6-2.4-4L7.5,3.4L7,3.9C6.6,4.3,4.4,6.5,4.4,8
	c0,0.7,0.3,1.4,0.7,1.9c-0.4,0.3-0.7,0.9-0.7,1.5v2.1H1.8c-1,0-1.8,0.8-1.8,1.8v2.4c0,1.2,0.6,2.2,1.4,2.9v6.2c0,1,0.9,1.9,1.9,1.9
	h23.3c1,0,1.9-0.9,1.9-1.9v-6.2c0.9-0.7,1.4-1.7,1.4-2.9v-2.4C30,14.3,29.2,13.5,28.2,13.5z M22.6,5.5c0.7,0.9,1.5,1.9,1.5,2.4
	c0,0.8-0.7,1.5-1.5,1.5S21.1,8.8,21.1,8C21.1,7.5,21.8,6.5,22.6,5.5z M21.1,11.4c0-0.2,0.2-0.4,0.4-0.4h2.2c0.2,0,0.4,0.2,0.4,0.4
	v2.1h-3V11.4z M15,3.2c0.7,0.9,1.5,1.9,1.5,2.4c0,0.8-0.7,1.5-1.5,1.5s-1.5-0.7-1.5-1.5C13.5,5.2,14.2,4.2,15,3.2z M13.5,9.1
	c0-0.2,0.2-0.4,0.4-0.4h2.2c0.2,0,0.4,0.2,0.4,0.4v4.4h-3V9.1z M7.5,5.5C8.2,6.4,8.9,7.5,8.9,8c0,0.8-0.7,1.5-1.5,1.5S5.9,8.8,5.9,8
	C5.9,7.5,6.7,6.5,7.5,5.5z M5.9,11.4c0-0.2,0.2-0.4,0.4-0.4h2.2c0.2,0,0.4,0.2,0.4,0.4v2.1h-3V11.4z M1.5,15.3
	c0-0.2,0.1-0.3,0.3-0.3h26.4c0.2,0,0.3,0.1,0.3,0.3v2.4c0,1.2-0.9,2.1-2.1,2.1c-1.1,0-2-0.8-2.1-1.9c0-0.4-0.4-0.7-0.8-0.7
	s-0.7,0.3-0.7,0.7c-0.1,1.1-1,1.9-2.1,1.9c-1.1,0-2-0.8-2.1-1.9c0-0.4-0.4-0.7-0.8-0.7s-0.7,0.3-0.7,0.7c-0.1,1.1-1,1.9-2.1,1.9
	c-1.1,0-2-0.8-2.1-1.9c0-0.4-0.4-0.7-0.8-0.7c-0.4,0-0.7,0.3-0.7,0.7c-0.1,1.1-1,1.9-2.1,1.9c-1.1,0-2-0.8-2.1-1.9
	c0-0.4-0.4-0.7-0.8-0.7c-0.4,0-0.7,0.3-0.7,0.7c-0.1,1.1-1,1.9-2.1,1.9c-1.2,0-2.1-0.9-2.1-2.1V15.3z M26.7,27.1H3.3
	c-0.2,0-0.4-0.2-0.4-0.4v-2.8h24.1v2.8C27.1,26.9,26.9,27.1,26.7,27.1z M27.1,22.4H2.9v-1.2c0.2,0,0.4,0.1,0.7,0.1
	c1.2,0,2.2-0.5,2.9-1.4c0.7,0.9,1.7,1.4,2.8,1.4s2.2-0.5,2.9-1.4c0.7,0.9,1.7,1.4,2.9,1.4c1.2,0,2.2-0.5,2.8-1.4
	c0.7,0.9,1.7,1.4,2.9,1.4s2.2-0.5,2.8-1.4c0.7,0.9,1.7,1.4,2.9,1.4c0.2,0,0.4,0,0.7-0.1V22.4z"/>
</svg>
