<?xml version="1.0" encoding="utf-8"?>
<!-- Generator: Adobe Illustrator 21.1.0, SVG Export Plug-In . SVG Version: 6.00 Build 0)  -->
<svg version="1.1" id="Layer_1" xmlns="http://www.w3.org/2000/svg" xmlns:xlink="http://www.w3.org/1999/xlink" x="0px" y="0px"
	 viewBox="0 0 30 30" style="enable-background:new 0 0 30 30;" xml:space="preserve">
<g>
	<path d="M29.8,7.5c0-0.4-0.3-0.8-0.8-0.8H23V6.1V2.6c0-0.4-0.3-0.8-0.8-0.8H0.9c-0.4,0-0.8,0.3-0.8,0.8v21.3c0,0,0,0,0,0.1
		c0,0,0,0.1,0,0.1c0,2.2,1.8,4,4,4h21.6c2.2,0,4-1.8,4-4l0-0.1c0,0,0,0,0-0.1V7.5z M1.7,24.1V3.4h19.8v2.7v1.4v16.5
		c0,1,0.4,1.9,1,2.7H4.2C2.8,26.6,1.7,25.5,1.7,24.1z M28.3,24.1c0,1.4-1.1,2.5-2.5,2.5h-0.1c-1.5,0-2.7-1.2-2.7-2.7V8.2h5.3v15.7h0
		C28.3,24,28.3,24,28.3,24.1z"/>
	<path d="M19.1,5.3H3.5c-0.4,0-0.8,0.3-0.8,0.8v7.1c0,0.4,0.3,0.8,0.8,0.8h15.6c0.4,0,0.8-0.3,0.8-0.8V6.1
		C19.9,5.6,19.5,5.3,19.1,5.3z M18.4,12.4H4.3V6.8h14.1V12.4z"/>
	<path d="M19.1,15.8H3.5c-0.4,0-0.8,0.3-0.8,0.8s0.3,0.8,0.8,0.8h15.6c0.4,0,0.8-0.3,0.8-0.8S19.5,15.8,19.1,15.8z"/>
	<path d="M19.1,18.4H3.5c-0.4,0-0.8,0.3-0.8,0.8s0.3,0.8,0.8,0.8h15.6c0.4,0,0.8-0.3,0.8-0.8S19.5,18.4,19.1,18.4z"/>
	<path d="M19.1,20.9H3.5c-0.4,0-0.8,0.3-0.8,0.8s0.3,0.8,0.8,0.8h15.6c0.4,0,0.8-0.3,0.8-0.8S19.5,20.9,19.1,20.9z"/>
</g>
</svg>
