<svg xmlns="http://www.w3.org/2000/svg" xmlns:xlink="http://www.w3.org/1999/xlink" id="Layer_1" x="0" y="0" enable-background="new 0 0 30 30" version="1.1" viewBox="0 0 30 30" xml:space="preserve"><style type="text/css">.st0{fill:#575b97}</style><linearGradient id="SVGID_1_" x1="0" x2="0" y1="0" y2="-1" gradientUnits="userSpaceOnUse"><stop offset="0" stop-color="#656565"/><stop offset=".618" stop-color="#1B1B1B"/><stop offset=".629" stop-color="#545454"/><stop offset=".983" stop-color="#3E3E3E"/></linearGradient><path d="M23.2,4.7h-3.1V4.1c0-1-0.8-1.8-1.8-1.8h-1C17.1,1,16,0,14.7,0c-1.3,0-2.5,1-2.7,2.3h-1c-1,0-1.8,0.8-1.8,1.8	v0.7H6.1c-1.3,0-2.3,1-2.3,2.3v20.7c0,1.3,1,2.3,2.3,2.3h17.1c1.3,0,2.3-1,2.3-2.3V7C25.5,5.8,24.5,4.7,23.2,4.7z M14.7,1.5	c0.5,0,0.9,0.3,1.1,0.7h-2.2C13.7,1.8,14.2,1.5,14.7,1.5z M10.8,4.1c0-0.1,0.1-0.3,0.3-0.3h7.3c0.1,0,0.3,0.1,0.3,0.3v1.4	c0,0,0,0,0,0c0,0,0,0,0,0v0.4c0,0.1-0.1,0.3-0.3,0.3H11c-0.1,0-0.3-0.1-0.3-0.3V4.1z M24,27.7c0,0.4-0.3,0.8-0.8,0.8H6.1	c-0.4,0-0.8-0.3-0.8-0.8V7c0-0.4,0.3-0.8,0.8-0.8h3.1c0.2,0.8,0.9,1.4,1.8,1.4h7.3c0.9,0,1.6-0.6,1.8-1.4h3.1C23.6,6.3,24,6.6,24,7	V27.7z" class="st0"/><path d="M7.9,14.1h2.9c0.7,0,1.3-0.6,1.3-1.3v-0.6c0-0.4-0.3-0.8-0.8-0.8s-0.8,0.3-0.8,0.8v0.4H8.1v-2.4H9	c0.4,0,0.8-0.3,0.8-0.8S9.5,8.6,9,8.6H7.9c-0.7,0-1.3,0.6-1.3,1.3v2.9C6.6,13.5,7.2,14.1,7.9,14.1z" class="st0"/><path d="M8.6,10.5c-0.3,0.3-0.4,0.7-0.1,1.1l0.4,0.5c0.1,0.2,0.3,0.3,0.6,0.3c0,0,0,0,0,0c0.2,0,0.4-0.1,0.5-0.2	l2.3-2.3c0.3-0.3,0.3-0.8,0-1.1c-0.3-0.3-0.8-0.3-1.1,0l-1.7,1.7C9.3,10.3,8.9,10.3,8.6,10.5z" class="st0"/><path d="M21.4,10.6h-8.2c-0.4,0-0.8,0.3-0.8,0.8s0.3,0.8,0.8,0.8h8.2c0.4,0,0.8-0.3,0.8-0.8S21.9,10.6,21.4,10.6z" class="st0"/><path d="M11.3,17.7c-0.4,0-0.8,0.3-0.8,0.8v0.4H8.1v-2.4H9c0.4,0,0.8-0.3,0.8-0.8S9.5,14.9,9,14.9H7.9	c-0.7,0-1.3,0.6-1.3,1.3v2.9c0,0.7,0.6,1.3,1.3,1.3h2.9c0.7,0,1.3-0.6,1.3-1.3v-0.6C12,18,11.7,17.7,11.3,17.7z" class="st0"/><path d="M12.3,15.1c-0.3-0.3-0.8-0.3-1.1,0l-1.7,1.7c-0.3-0.2-0.7-0.3-1,0c-0.3,0.3-0.4,0.7-0.1,1.1l0.4,0.6	c0.1,0.2,0.3,0.3,0.6,0.3c0,0,0,0,0,0c0.2,0,0.4-0.1,0.5-0.2l2.3-2.3C12.6,15.9,12.6,15.4,12.3,15.1z" class="st0"/><path d="M21.4,16.9h-8.2c-0.4,0-0.8,0.3-0.8,0.8c0,0.4,0.3,0.8,0.8,0.8h8.2c0.4,0,0.8-0.3,0.8-0.8	C22.2,17.2,21.9,16.9,21.4,16.9z" class="st0"/><path d="M10.7,21.2H7.9c-0.7,0-1.3,0.6-1.3,1.3v2.9c0,0.7,0.6,1.3,1.3,1.3h2.9c0.7,0,1.3-0.6,1.3-1.3v-2.9	C12,21.7,11.4,21.2,10.7,21.2z M10.5,25.1H8.1v-2.4h2.4V25.1z" class="st0"/><path d="M21.4,23.1h-8.2c-0.4,0-0.8,0.3-0.8,0.8c0,0.4,0.3,0.8,0.8,0.8h8.2c0.4,0,0.8-0.3,0.8-0.8	C22.2,23.5,21.9,23.1,21.4,23.1z" class="st0"/></svg>