<svg xmlns="http://www.w3.org/2000/svg" xmlns:xlink="http://www.w3.org/1999/xlink" id="Layer_1" x="0" y="0" enable-background="new 0 0 13 13" version="1.1" viewBox="0 0 13 13" xml:space="preserve"><path d="M8.2,5.7c0.6-0.5,1-1.2,1-2c0-1.5-1.2-2.6-2.6-2.6C5,1.1,3.9,2.3,3.9,3.7c0,0.8,0.4,1.5,1,2C3.8,5.9,2.9,6.8,2.9,8v3.2	c0,0.4,0.3,0.8,0.8,0.8h5.6c0.4,0,0.8-0.3,0.8-0.8V8C10.1,6.8,9.2,5.9,8.2,5.7z M6.5,2.6c0.6,0,1.1,0.5,1.1,1.1S7.1,4.9,6.5,4.9	c-0.6,0-1.1-0.5-1.1-1.1S5.9,2.6,6.5,2.6z M8.6,10.4H4.4V8c0-0.4,0.3-0.7,0.7-0.7h2.6c0.4,0,0.7,0.3,0.7,0.7V10.4z"/></svg>