<svg xmlns="http://www.w3.org/2000/svg" xmlns:xlink="http://www.w3.org/1999/xlink" id="Layer_1" x="0" y="0" enable-background="new 0 0 20 20" version="1.1" viewBox="0 0 20 20" xml:space="preserve"><style type="text/css">.st0{fill:#ff2f51}</style><path d="M18.9,1.1c-1.4-1.4-3.9-1.4-5.3,0L2.7,12c-0.1,0.1-0.1,0.2-0.2,0.3L0,19c-0.1,0.3,0,0.6,0.2,0.8	C0.4,19.9,0.6,20,0.7,20c0.1,0,0.2,0,0.3,0l6.7-2.5c0.1,0,0.2-0.1,0.3-0.2L18.9,6.3C19.6,5.6,20,4.7,20,3.7S19.6,1.8,18.9,1.1z M7.4,15.7l-3.2-3.2l8.9-8.9l3.2,3.2L7.4,15.7z M3.5,13.9l2.6,2.6L2,18L3.5,13.9z M17.9,5.3l-0.5,0.5l-3.2-3.2l0.5-0.5	c0.8-0.8,2.3-0.8,3.2,0c0.4,0.4,0.7,1,0.7,1.6C18.5,4.3,18.3,4.8,17.9,5.3z" class="st0"/></svg>