<?xml version="1.0" encoding="utf-8"?>
<!-- Generator: Adobe Illustrator 21.1.0, SVG Export Plug-In . SVG Version: 6.00 Build 0)  -->
<svg version="1.1" id="Layer_1" xmlns="http://www.w3.org/2000/svg" xmlns:xlink="http://www.w3.org/1999/xlink" x="0px" y="0px"
	 viewBox="0 0 14 14" style="enable-background:new 0 0 14 14;" xml:space="preserve">
<style type="text/css">
	.st0{fill:#CCCCCC;}
</style>
<path class="st0" d="M3.7,5.6c1.1,2.1,2.6,3.6,4.7,4.7c0.3-0.4,0.7-0.8,1-1.3c0.4-0.5,0.8-0.6,1.3-0.3c0.9,0.5,1.8,0.9,2.7,1.4
	c0.6,0.3,0.7,0.9,0.4,1.4c-0.4,0.6-0.8,1.2-1.2,1.8c-0.3,0.5-0.8,0.7-1.3,0.7c-1.9-0.1-3.5-0.8-5-1.8c-2-1.3-3.7-3-4.9-5.2
	c-0.6-1-1-2-1.2-3.1C0.1,3.5,0,3,0,2.6c0-0.5,0.2-0.9,0.6-1.2C1.2,1,1.8,0.6,2.4,0.2C2.9-0.2,3.5,0,3.8,0.5c0.5,0.9,1,1.9,1.5,2.8
	C5.5,3.8,5.4,4.2,5,4.5C4.6,4.9,4.2,5.2,3.7,5.6C3.8,5.5,3.7,5.6,3.7,5.6z"/>
</svg>
