<?xml version="1.0" encoding="utf-8"?>
<!-- Generator: Adobe Illustrator 21.1.0, SVG Export Plug-In . SVG Version: 6.00 Build 0)  -->
<svg version="1.1" id="Layer_1" xmlns="http://www.w3.org/2000/svg" xmlns:xlink="http://www.w3.org/1999/xlink" x="0px" y="0px"
	 viewBox="0 0 18 18" style="enable-background:new 0 0 18 18;" xml:space="preserve">
<g>
	<g>
		<path d="M9,18l-0.4-0.3c-0.3-0.2-7.4-5.6-7.4-9.8C1.1,3.5,4.7,0,9,0s7.9,3.5,7.9,7.9c0,4.3-7.1,9.6-7.4,9.8L9,18z M9,1.4
			c-3.6,0-6.5,2.9-6.5,6.5c0,2.8,4.3,6.8,6.5,8.4c2.1-1.7,6.5-5.7,6.5-8.4C15.5,4.3,12.6,1.4,9,1.4z"/>
	</g>
	<g>
		<path d="M9,10.9c-1.8,0-3.3-1.5-3.3-3.3c0-1.8,1.5-3.3,3.3-3.3s3.3,1.5,3.3,3.3C12.3,9.4,10.8,10.9,9,10.9z M9,5.6
			c-1.1,0-2,0.9-2,2c0,1.1,0.9,2,2,2s2-0.9,2-2C11,6.5,10.1,5.6,9,5.6z"/>
	</g>
</g>
</svg>
