<?xml version="1.0" encoding="utf-8"?>
<!-- Generator: Adobe Illustrator 21.1.0, SVG Export Plug-In . SVG Version: 6.00 Build 0)  -->
<svg version="1.1" id="Layer_1" xmlns="http://www.w3.org/2000/svg" xmlns:xlink="http://www.w3.org/1999/xlink" x="0px" y="0px"
	 viewBox="0 0 36 36" style="enable-background:new 0 0 36 36;" xml:space="preserve">
<g>
	<path d="M18,0C8.1,0,0,8.1,0,18s8.1,18,18,18s18-8.1,18-18S27.9,0,18,0z M18,34.5C8.9,34.5,1.5,27.1,1.5,18S8.9,1.5,18,1.5
		S34.5,8.9,34.5,18S27.1,34.5,18,34.5z"/>
	<path d="M24,17.2h-5.2V12c0-0.4-0.3-0.8-0.8-0.8s-0.8,0.3-0.8,0.8v5.2H12c-0.4,0-0.8,0.3-0.8,0.8s0.3,0.8,0.8,0.8h5.2V24
		c0,0.4,0.3,0.8,0.8,0.8s0.8-0.3,0.8-0.8v-5.2H24c0.4,0,0.8-0.3,0.8-0.8S24.4,17.2,24,17.2z"/>
</g>
</svg>
