<svg xmlns="http://www.w3.org/2000/svg" xmlns:xlink="http://www.w3.org/1999/xlink" id="Layer_1" x="0" y="0" enable-background="new 0 0 36 36" version="1.1" viewBox="0 0 36 36" xml:space="preserve"><style type="text/css">.st0{fill:#ff2f51}</style><path d="M18,0C8.1,0,0,8.1,0,18s8.1,18,18,18s18-8.1,18-18S27.9,0,18,0z M24,18.8h-5.2V24c0,0.4-0.3,0.8-0.8,0.8	s-0.8-0.3-0.8-0.8v-5.2H12c-0.4,0-0.8-0.3-0.8-0.8s0.3-0.8,0.8-0.8h5.2V12c0-0.4,0.3-0.8,0.8-0.8s0.8,0.3,0.8,0.8v5.2H24	c0.4,0,0.8,0.3,0.8,0.8S24.4,18.8,24,18.8z" class="st0"/></svg>