<svg xmlns="http://www.w3.org/2000/svg" xmlns:xlink="http://www.w3.org/1999/xlink" id="Layer_1" x="0" y="0" enable-background="new 0 0 32 20" version="1.1" viewBox="0 0 32 20" xml:space="preserve"><path d="M9.6,15C8,15.3,6.5,15.3,5,14.7C2.1,13.5,0.4,11.4,0,8.3c-0.5-3.8,2.3-7.5,6.4-8.2c4.3-0.8,8.5,2.1,9.1,6.2	c0.4,2.1,0,4.1-0.9,6.1c-1.8,3.9-4.9,6.4-9.2,7.3c-0.9,0.2-1.7,0.2-2.6,0.3c-0.6,0-1.1-0.4-1.3-0.9c-0.2-0.6,0-1.1,0.6-1.4	c0.2-0.1,0.6-0.2,0.8-0.2c1.8,0,3.5-0.5,5-1.4C8.6,15.8,9.1,15.4,9.6,15C9.6,15.1,9.6,15,9.6,15z"/><path d="M25.9,15c-1.1,0.2-2.1,0.3-3.2,0.1c-2.1-0.4-3.7-1.4-4.9-3c-3.3-4.4-0.9-10.6,4.6-11.9c4.4-1,8.9,1.9,9.5,6.3	c0.3,2.3-0.1,4.4-1.2,6.5c-1.9,3.6-4.8,5.9-8.9,6.7c-0.8,0.2-1.7,0.2-2.6,0.3c-0.6,0-1.1-0.4-1.3-0.9c-0.2-0.6,0-1.1,0.6-1.4	c0.2-0.1,0.6-0.2,0.8-0.2c2.3-0.1,4.4-0.8,6.2-2.2C25.7,15.2,25.8,15.1,25.9,15z"/></svg>