<?xml version="1.0" encoding="utf-8"?>
<!-- Generator: Adobe Illustrator 21.1.0, SVG Export Plug-In . SVG Version: 6.00 Build 0)  -->
<svg version="1.1" id="Logo_original" xmlns="http://www.w3.org/2000/svg" xmlns:xlink="http://www.w3.org/1999/xlink" x="0px"
	 y="0px" viewBox="0 0 20 20" style="enable-background:new 0 0 20 20;" xml:space="preserve">
<style type="text/css">
	.st0{fill:#CCCCCC;}
</style>
<g>
	<path class="st0" d="M12.4,20H7.6c-0.4,0-0.7-0.3-0.8-0.7l-0.1-1.7c-0.6-0.2-1.1-0.6-1.6-0.9l-1.5,0.7c-0.4,0.2-0.8,0-1-0.3
		l-2.4-4.2c-0.2-0.3-0.1-0.8,0.2-1l1.4-1c0-0.3-0.1-0.6-0.1-0.9s0-0.6,0.1-0.9l-1.4-1C0,7.9-0.1,7.4,0.1,7.1l2.4-4.2
		c0.2-0.3,0.6-0.5,1-0.3L5,3.3c0.5-0.4,1-0.7,1.6-0.9l0.1-1.7C6.9,0.3,7.2,0,7.6,0h4.8c0.4,0,0.7,0.3,0.8,0.7l0.1,1.7
		c0.6,0.2,1.1,0.6,1.6,0.9l1.5-0.7c0.4-0.2,0.8,0,1,0.3l2.4,4.2c0.2,0.3,0.1,0.8-0.2,1l-1.4,1c0,0.3,0.1,0.6,0.1,0.9
		c0,0.3,0,0.6-0.1,0.9l1.4,1c0.3,0.2,0.4,0.7,0.2,1l-2.4,4.2c-0.2,0.3-0.6,0.5-1,0.3L15,16.7c-0.5,0.4-1,0.7-1.6,0.9l-0.1,1.7
		C13.1,19.7,12.8,20,12.4,20z M8.3,18.5h3.4l0.1-1.4c0-0.3,0.2-0.6,0.5-0.7c0.7-0.3,1.4-0.7,2-1.2c0.2-0.2,0.5-0.2,0.8-0.1l1.3,0.6
		l1.7-3L17,11.9c-0.2-0.2-0.4-0.5-0.3-0.8c0.1-0.4,0.1-0.8,0.1-1.2s0-0.8-0.1-1.2c-0.1-0.3,0.1-0.6,0.3-0.8l1.2-0.8l-1.7-3l-1.3,0.6
		C14.9,5,14.6,5,14.4,4.8c-0.6-0.5-1.3-0.9-2-1.2c-0.3-0.1-0.5-0.4-0.5-0.7l-0.1-1.4H8.3L8.2,3c0,0.3-0.2,0.6-0.5,0.7
		c-0.7,0.3-1.4,0.7-2,1.2C5.4,5,5.1,5,4.8,4.9L3.5,4.3l-1.7,3L3,8.1c0.2,0.2,0.4,0.5,0.3,0.8C3.2,9.2,3.2,9.6,3.2,10s0,0.8,0.1,1.2
		c0.1,0.3-0.1,0.6-0.3,0.8l-1.2,0.8l1.7,3l1.3-0.6C5.1,15,5.4,15,5.6,15.2c0.6,0.5,1.3,0.9,2,1.2c0.3,0.1,0.5,0.4,0.5,0.7L8.3,18.5z
		 M10,13.6c-2,0-3.6-1.6-3.6-3.6C6.4,8,8,6.4,10,6.4c2,0,3.6,1.6,3.6,3.6C13.6,12,12,13.6,10,13.6z M10,7.9c-1.1,0-2.1,0.9-2.1,2.1
		c0,1.1,0.9,2.1,2.1,2.1c1.1,0,2.1-0.9,2.1-2.1C12.1,8.9,11.1,7.9,10,7.9z"/>
</g>
</svg>
