<?xml version="1.0" encoding="utf-8"?>
<!-- Generator: Adobe Illustrator 21.1.0, SVG Export Plug-In . SVG Version: 6.00 Build 0)  -->
<svg version="1.1" id="Logo_original" xmlns="http://www.w3.org/2000/svg" xmlns:xlink="http://www.w3.org/1999/xlink" x="0px"
	 y="0px" viewBox="0 0 14 14" style="enable-background:new 0 0 14 14;" xml:space="preserve">
<style type="text/css">
	.st0{fill:#CCCCCC;}
</style>
<g>
	<path class="st0" d="M5.9,0.5C5.8,0.5,5.8,0.5,5.9,0.5c-0.1,0-0.1,0-0.1,0L5.9,0.5z"/>
	<path class="st0" d="M0.7,5.8C0.7,5.8,0.7,5.8,0.7,5.8c0,0.1,0,0.1,0,0.1L0.7,5.8z"/>
	<path class="st0" d="M13.3,8.2C13.3,8.2,13.3,8.2,13.3,8.2c0-0.1,0-0.1,0-0.1L13.3,8.2z"/>
	<path class="st0" d="M8.1,13.5C8.1,13.5,8.1,13.5,8.1,13.5c0.1,0,0.1,0,0.1,0L8.1,13.5z"/>
	<path class="st0" d="M13.3,8.2C13.3,8.2,13.3,8.2,13.3,8.2L13.3,8.2C13.3,8.1,13.3,8.1,13.3,8.2c0.1-0.4,0.1-0.8,0.1-1.2
		c0-0.9-0.2-1.8-0.5-2.6c-0.3-0.8-0.8-1.5-1.4-2.1c-0.6-0.6-1.3-1.1-2-1.4C8.7,0.5,7.9,0.3,7,0.3c-0.4,0-0.8,0-1.2,0.1c0,0,0,0,0,0
		c0,0,0,0,0.1,0l-0.1,0c0,0,0,0,0.1,0C5.2,0.2,4.6,0,4,0c-1,0-2,0.4-2.7,1.1C0.6,1.9,0.2,2.9,0.2,3.9c0,0.7,0.2,1.3,0.5,1.9
		c0,0,0,0,0-0.1l0,0.1c0,0,0,0,0-0.1C0.6,6.2,0.6,6.6,0.6,7c0,0.9,0.2,1.8,0.5,2.6c0.3,0.8,0.8,1.5,1.4,2.1c0.6,0.6,1.3,1.1,2,1.4
		c0.8,0.3,1.6,0.5,2.5,0.5c0.4,0,0.8,0,1.1-0.1c0,0,0,0-0.1,0l0.1,0c0,0,0,0-0.1,0C8.7,13.8,9.3,14,10,14c1,0,2-0.4,2.7-1.1
		c0.7-0.7,1.1-1.7,1.1-2.8C13.8,9.4,13.6,8.8,13.3,8.2z M7,11c-2.3,0-3.3-1.2-3.3-2c0-0.4,0.3-0.8,0.8-0.8c1,0,0.7,1.4,2.5,1.4
		c0.9,0,1.4-0.5,1.4-1.1c0-0.3-0.2-0.7-0.8-0.8l-2-0.5C4.1,6.9,3.8,5.9,3.8,5.1c0-1.8,1.6-2.4,3.1-2.4c1.4,0,3,0.8,3,1.9
		c0,0.5-0.4,0.7-0.8,0.7C8.3,5.2,8.4,4,6.8,4C5.9,4,5.5,4.4,5.5,5c0,0.6,0.7,0.7,1.2,0.9l1.5,0.3c1.6,0.4,2.1,1.4,2.1,2.3
		C10.3,9.9,9.2,11,7,11z"/>
</g>
</svg>
