<?xml version="1.0" encoding="utf-8"?>
<!-- Generator: Adobe Illustrator 21.1.0, SVG Export Plug-In . SVG Version: 6.00 Build 0)  -->
<svg version="1.1" id="Layer_1" xmlns="http://www.w3.org/2000/svg" xmlns:xlink="http://www.w3.org/1999/xlink" x="0px" y="0px"
	 viewBox="0 0 18 18" style="enable-background:new 0 0 18 18;" xml:space="preserve">
<style type="text/css">
	.Drop_x0020_Shadow{fill:none;}
	.Outer_x0020_Glow_x0020_5_x0020_pt{fill:none;}
	.Blue_x0020_Neon{fill:none;stroke:#8AACDA;stroke-width:7;stroke-linecap:round;stroke-linejoin:round;}
	.Chrome_x0020_Highlight{fill:url(#SVGID_1_);stroke:#FFFFFF;stroke-width:0.3629;stroke-miterlimit:1;}
	.Jive_GS{fill:#FFDD00;}
	.Alyssa_GS{fill:#A6D0E4;}
	.st0{fill:#CCCCCC;}
</style>
<linearGradient id="SVGID_1_" gradientUnits="userSpaceOnUse" x1="2" y1="2" x2="2" y2="1">
	<stop  offset="0" style="stop-color:#656565"/>
	<stop  offset="0.618" style="stop-color:#1B1B1B"/>
	<stop  offset="0.6292" style="stop-color:#545454"/>
	<stop  offset="0.9831" style="stop-color:#3E3E3E"/>
</linearGradient>
<g>
	<path class="st0" d="M14.1,18c-0.1,0-0.3,0-0.4-0.1l-1.8-1c-1-0.5-1.9-1.1-2.9-1.6c-1.5,0.8-3,1.7-4.6,2.5l-0.1,0.1
		c-0.3,0.1-0.6,0.1-0.8,0c-0.2-0.2-0.4-0.4-0.3-0.7l0.9-5.6L0.3,7.7C0,7.5-0.1,7,0.1,6.7c0.1-0.2,0.3-0.4,0.6-0.4l5.1-0.8
		c0,0,0.1,0,0.1,0C6,5.4,6,5.4,6,5.3l2.3-4.9C8.4,0.2,8.7,0,9,0c0.3,0,0.6,0.1,0.7,0.4l0.4,0.9c0.7,1.4,1.3,2.8,2,4.2
		c1.3,0.2,2.6,0.4,3.9,0.6l1.3,0.2c0,0,0.1,0,0.1,0c0.3,0.1,0.5,0.3,0.5,0.5c0.1,0.3,0,0.5-0.2,0.7L17,8.4c-1,1-2,2.1-3,3.1
		c0.2,1.4,0.5,2.9,0.7,4.4l0.2,1.2c0,0.3-0.1,0.6-0.3,0.7C14.4,18,14.3,18,14.1,18z M9,13.7c0.2,0,0.3,0,0.5,0.1
		c1,0.6,2.1,1.2,3.1,1.7l0.5,0.3c-0.2-1.4-0.5-2.8-0.7-4.2c-0.1-0.4,0-0.7,0.3-1c1-1,2-2,3-3c-1.4-0.2-2.7-0.4-4.1-0.6
		c-0.4-0.1-0.7-0.3-0.8-0.6C10.2,5,9.6,3.8,9,2.5L7.4,6.1C7.3,6.2,7.2,6.5,6.9,6.7C6.7,6.9,6.4,7,6.2,7c0,0-0.1,0-0.1,0L2.3,7.6
		l3,3.1c0.3,0.3,0.4,0.6,0.3,0.9l-0.7,4.3c1.2-0.7,2.4-1.3,3.6-2C8.7,13.7,8.8,13.7,9,13.7z M12.2,5.7C12.2,5.7,12.2,5.7,12.2,5.7
		C12.2,5.7,12.2,5.7,12.2,5.7z"/>
</g>
</svg>
