<?xml version="1.0" encoding="utf-8"?>
<!-- Generator: Adobe Illustrator 21.1.0, SVG Export Plug-In . SVG Version: 6.00 Build 0)  -->
<svg version="1.1" id="Layer_1" xmlns="http://www.w3.org/2000/svg" xmlns:xlink="http://www.w3.org/1999/xlink" x="0px" y="0px"
	 viewBox="0 0 22 23" style="enable-background:new 0 0 22 23;" xml:space="preserve">
<g>
	<path d="M21.2,2.8h-5.5V2.6c0-1.4-1.1-2.6-2.5-2.6H8.8C7.4,0,6.3,1.1,6.3,2.6v0.3H0.8C0.3,2.8,0,3.2,0,3.6s0.3,0.8,0.8,0.8h1.4
		c0.4,3,1.8,14.4,2,15.2C4.6,21.9,5.7,23,7.6,23h6.8c1.5,0,3.3-0.9,3.6-3.4c0.3-2.1,1.6-12.4,1.9-15.2h1.4c0.4,0,0.8-0.4,0.8-0.8
		S21.7,2.8,21.2,2.8z M7.8,2.6c0-0.5,0.4-1,1-1h4.4c0.5,0,1,0.4,1,1v0.3H7.8V2.6z M16.4,19.4c-0.3,1.8-1.4,2.1-2.1,2.1H7.6
		c-1.1,0-1.6-0.6-1.9-2.1C5.5,18.7,4.3,9,3.7,4.4h14.6C17.9,7.4,16.7,17.3,16.4,19.4z"/>
	<path d="M11,7.6c-0.4,0-0.8,0.4-0.8,0.8V18c0,0.4,0.3,0.8,0.8,0.8s0.8-0.4,0.8-0.8V8.4C11.8,8,11.4,7.6,11,7.6z"/>
	<path d="M13.8,8.3l-0.8,9.8c0,0.4,0.3,0.8,0.7,0.8c0,0,0,0,0.1,0c0.4,0,0.7-0.3,0.8-0.7l0.8-9.8c0-0.4-0.3-0.8-0.7-0.8
		C14.2,7.6,13.9,7.9,13.8,8.3z"/>
	<path d="M7.3,7.6C6.9,7.7,6.6,8,6.6,8.5l0.8,9.8c0,0.4,0.4,0.7,0.8,0.7c0,0,0,0,0.1,0c0.4,0,0.7-0.4,0.7-0.8L8.2,8.3
		C8.1,7.9,7.8,7.6,7.3,7.6z"/>
</g>
</svg>
